<?xml version="1.0" encoding="UTF-8"?>
<svg version="1.1" xmlns="http://www.w3.org/2000/svg" width="224" height="224">
<path d="M0 0 C17.48467607 14.30986775 29.45443734 35.28869905 32.71240234 57.71289062 C35.08218434 84.04380166 29.50157501 108.42342178 13.09130859 129.54101562 C11.75676628 131.12030991 10.40280674 132.68342576 9.02880859 134.22851562 C8.37654297 134.97488281 7.72427734 135.72125 7.05224609 136.49023438 C-8.96308576 153.6752253 -32.28799238 163.12441037 -55.546875 164.20263672 C-78.82671062 164.78078711 -101.16056068 157.40053439 -118.97119141 142.22851562 C-119.70853516 141.63554687 -120.44587891 141.04257813 -121.20556641 140.43164062 C-138.81520641 125.73669966 -149.20469285 103.22263626 -151.57055664 80.65039062 C-153.61357172 56.03332005 -146.6883626 32.36394994 -131.30712891 12.96679688 C-97.72993291 -26.39376231 -40.71131143 -31.9951452 0 0 Z " fill="#FDFEFE" transform="translate(171.97119140625,39.771484375)"/>
<path d="M0 0 C0.98870087 0.00081573 0.98870087 0.00081573 1.99737549 0.00164795 C12.98518911 0.04321429 22.98607267 1.00315509 33.4375 4.375 C34.11377441 4.58398926 34.79004883 4.79297852 35.48681641 5.00830078 C50.15713834 9.64158202 62.80574999 17.35597096 74.4375 27.375 C75.17097656 27.96410156 75.90445313 28.55320312 76.66015625 29.16015625 C96.60287637 45.72633117 109.3384354 71.85292472 112.4375 97.375 C112.74917763 102.2327634 112.8193035 107.07052175 112.8125 111.9375 C112.81195618 112.59663391 112.81141235 113.25576782 112.81085205 113.93487549 C112.76928571 124.92268911 111.80934491 134.92357267 108.4375 145.375 C108.12401611 146.38941162 108.12401611 146.38941162 107.80419922 147.42431641 C103.17091798 162.09463834 95.45652904 174.74324999 85.4375 186.375 C84.55384766 187.47521484 84.55384766 187.47521484 83.65234375 188.59765625 C67.08616883 208.54037637 40.95957528 221.2759354 15.4375 224.375 C10.5797366 224.68667763 5.74197825 224.7568035 0.875 224.75 C-0.11370087 224.74918427 -0.11370087 224.74918427 -1.12237549 224.74835205 C-12.11018911 224.70678571 -22.11107267 223.74684491 -32.5625 220.375 C-33.57691162 220.06151611 -33.57691162 220.06151611 -34.61181641 219.74169922 C-49.28213834 215.10841798 -61.93074999 207.39402904 -73.5625 197.375 C-74.29597656 196.78589844 -75.02945313 196.19679687 -75.78515625 195.58984375 C-95.72787637 179.02366883 -108.4634354 152.89707528 -111.5625 127.375 C-111.87417763 122.5172366 -111.9443035 117.67947825 -111.9375 112.8125 C-111.93695618 112.15336609 -111.93641235 111.49423218 -111.93585205 110.81512451 C-111.89428571 99.82731089 -110.93434491 89.82642733 -107.5625 79.375 C-107.35351074 78.69872559 -107.14452148 78.02245117 -106.92919922 77.32568359 C-102.29591798 62.65536166 -94.58152904 50.00675001 -84.5625 38.375 C-83.97339844 37.64152344 -83.38429688 36.90804687 -82.77734375 36.15234375 C-62.64608673 11.91790059 -30.86522816 -0.04314621 0 0 Z M-70.5625 31.375 C-71.09069336 31.8690332 -71.61888672 32.36306641 -72.16308594 32.87207031 C-88.31535298 48.08019337 -98.97148282 65.88379051 -104.5625 87.375 C-104.79582031 88.22964844 -105.02914062 89.08429688 -105.26953125 89.96484375 C-111.81463304 117.51077576 -105.03816058 146.45169459 -90.81640625 170.36865234 C-87.83491836 175.13926517 -84.42203512 179.29631146 -80.5625 183.375 C-80.0684668 183.90319336 -79.57443359 184.43138672 -79.06542969 184.97558594 C-63.85730663 201.12785298 -46.05370949 211.78398282 -24.5625 217.375 C-23.70785156 217.60832031 -22.85320312 217.84164062 -21.97265625 218.08203125 C5.57327576 224.62713304 34.51419459 217.85066058 58.43115234 203.62890625 C63.20176517 200.64741836 67.35881146 197.23453512 71.4375 193.375 C71.96569336 192.8809668 72.49388672 192.38693359 73.03808594 191.87792969 C89.19035298 176.66980663 99.84648282 158.86620949 105.4375 137.375 C105.67082031 136.52035156 105.90414062 135.66570312 106.14453125 134.78515625 C112.68963304 107.23922424 105.91316058 78.29830541 91.69140625 54.38134766 C88.70991836 49.61073483 85.29703512 45.45368854 81.4375 41.375 C80.9434668 40.84680664 80.44943359 40.31861328 79.94042969 39.77441406 C64.73230663 23.62214702 46.92870949 12.96601718 25.4375 7.375 C24.58285156 7.14167969 23.72820312 6.90835937 22.84765625 6.66796875 C-9.18646653 -0.94355786 -46.6902586 8.7854462 -70.5625 31.375 Z " fill="#D2D2D2" transform="translate(111.5625,-0.375)"/>
<path d="M0 0 C8.15322327 2.20415222 13.24897816 5.43817543 18.18359375 12.3046875 C19.88481159 14.28227442 19.88481159 14.28227442 22.453125 13.98046875 C25.33830845 12.86976162 27.05689214 11.54018529 29.3125 9.4375 C30.00988281 8.79683594 30.70726562 8.15617187 31.42578125 7.49609375 C31.94527344 7.00238281 32.46476562 6.50867188 33 6 C34.9375 6.6875 34.9375 6.6875 37 8 C37.75 10.625 37.75 10.625 38 13 C36.27427512 14.44163007 34.5442653 15.87813165 32.8125 17.3125 C31.84957031 18.11300781 30.88664062 18.91351563 29.89453125 19.73828125 C23.08410882 25.05978541 23.08410882 25.05978541 19.875 24.8828125 C17.07601847 23.5649587 15.53495192 21.50589439 13.5625 19.1796875 C12.05221547 17.76836043 12.05221547 17.76836043 9.953125 18.16015625 C7.08514244 19.39338875 5.78824958 21.50922381 4 24 C4.62648437 24.40992187 5.25296875 24.81984375 5.8984375 25.2421875 C7.12433594 26.05042969 7.12433594 26.05042969 8.375 26.875 C9.59316406 27.67550781 9.59316406 27.67550781 10.8359375 28.4921875 C13 30 13 30 15 32 C14.83384351 36.80192246 12.36310753 39.40268776 9.25 42.875 C7.95835938 44.35613281 7.95835938 44.35613281 6.640625 45.8671875 C4 48 4 48 1.171875 47.8203125 C0.45515625 47.54960937 -0.2615625 47.27890625 -1 47 C-1.75 45.3125 -1.75 45.3125 -2 43 C-0.125 40.4375 -0.125 40.4375 2 38 C2.33 37.01 2.66 36.02 3 35 C0.17739732 34.470762 -1.27771032 34.2792414 -4 35 C-10.5316146 40.21182444 -15.15061831 48.23863715 -19.8984375 55.05859375 C-22 58 -22 58 -24 60 C-28.55555556 59.44444444 -28.55555556 59.44444444 -30 58 C-30.67180877 54.38309018 -29.80312585 52.36507876 -27.83203125 49.42578125 C-26.83736452 48.04607136 -25.82997674 46.67547556 -24.8125 45.3125 C-24.27874756 44.57717041 -23.74499512 43.84184082 -23.19506836 43.08422852 C-21.47339509 40.71533223 -19.73662853 38.35794711 -18 36 C-16.24604986 33.59244607 -14.49696804 31.18146505 -12.75073242 28.76831055 C-11.65576687 27.25657719 -10.55718323 25.74745531 -9.4543457 24.24145508 C-6.08641748 19.61687695 -2.96468973 14.89292985 0 10 C-2.84807933 9.45462311 -4.25189276 9.23495916 -7 10 C-9.46787841 12.15192166 -11.56743192 14.44328256 -13.69140625 16.93359375 C-16.49229597 19.4406507 -18.27464974 19.88246494 -22 20 C-22.66 19.34 -23.32 18.68 -24 18 C-23.92718444 13.76941622 -22.09784461 11.64591865 -19.1484375 8.74804688 C-18.64570312 8.27431641 -18.14296875 7.80058594 -17.625 7.3125 C-17.13 6.82716797 -16.635 6.34183594 -16.125 5.84179688 C-10.89357095 0.77122727 -7.30172673 -1.00639635 0 0 Z " fill="#24AFE9" transform="translate(110,88)"/>
<path d="M0 0 C2.69990662 1.79993774 4.5418865 3.083773 6 6 C6.52981019 9.97357645 6.31881474 11.54170381 4 14.875 C0.6574165 17.24266331 -1.06013415 17.75726358 -5.0625 17.484375 C-8.52395669 16.61901083 -10.01181405 14.85801731 -12 12 C-12.7446324 8.02862719 -12.37266878 6.55900317 -10.125 3.1875 C-6.82233621 -0.21230096 -4.68601439 -0.45941318 0 0 Z " fill="#26B0E9" transform="translate(132,76)"/>
<path d="M0 0 C13.2 0 26.4 0 40 0 C40 0.99 40 1.98 40 3 C26.8 3 13.6 3 0 3 C0 2.01 0 1.02 0 0 Z " fill="#4EBFED" transform="translate(76,81)"/>
</svg>
