<?xml version="1.0" encoding="UTF-8"?>
<svg version="1.1" xmlns="http://www.w3.org/2000/svg" width="225" height="224">
<path d="M0 0 C17.48467607 14.30986775 29.45443734 35.28869905 32.71240234 57.71289062 C35.08218434 84.04380166 29.50157501 108.42342178 13.09130859 129.54101562 C11.75676628 131.12030991 10.40280674 132.68342576 9.02880859 134.22851562 C8.37654297 134.97488281 7.72427734 135.72125 7.05224609 136.49023438 C-8.96308576 153.6752253 -32.28799238 163.12441037 -55.546875 164.20263672 C-78.82671062 164.78078711 -101.16056068 157.40053439 -118.97119141 142.22851562 C-119.70853516 141.63554687 -120.44587891 141.04257813 -121.20556641 140.43164062 C-138.81520641 125.73669966 -149.20469285 103.22263626 -151.57055664 80.65039062 C-153.61357172 56.03332005 -146.6883626 32.36394994 -131.30712891 12.96679688 C-97.72993291 -26.39376231 -40.71131143 -31.9951452 0 0 Z " fill="#FEFEFE" transform="translate(173.97119140625,39.771484375)"/>
<path d="M0 0 C0.98870087 0.00081573 0.98870087 0.00081573 1.99737549 0.00164795 C12.98518911 0.04321429 22.98607267 1.00315509 33.4375 4.375 C34.11377441 4.58398926 34.79004883 4.79297852 35.48681641 5.00830078 C50.15713834 9.64158202 62.80574999 17.35597096 74.4375 27.375 C75.17097656 27.96410156 75.90445313 28.55320312 76.66015625 29.16015625 C94.81983478 44.24518021 107.82594954 68.10260066 111.4375 91.375 C111.61159255 94.42390217 111.6491153 97.47006807 111.67578125 100.5234375 C111.683853 101.41302155 111.69192474 102.30260559 111.70024109 103.21914673 C111.71404904 105.10359776 111.72478585 106.98807345 111.73266602 108.87255859 C111.74411461 110.77302539 111.76445155 112.67346187 111.79418945 114.57373047 C111.98127291 126.54916196 111.38410856 136.99775768 107.4375 148.375 C107.14963623 149.22304199 106.86177246 150.07108398 106.56518555 150.94482422 C105.81068737 153.03614368 104.99582331 155.079733 104.125 157.125 C103.6772522 158.18956421 103.6772522 158.18956421 103.22045898 159.27563477 C98.82217908 169.42914751 92.52503523 177.93876875 85.4375 186.375 C84.84582031 187.11363281 84.25414062 187.85226563 83.64453125 188.61328125 C67.04745659 208.53684849 40.97378568 221.27420987 15.4375 224.375 C10.5797366 224.68667763 5.74197825 224.7568035 0.875 224.75 C-0.11370087 224.74918427 -0.11370087 224.74918427 -1.12237549 224.74835205 C-12.11018911 224.70678571 -22.11107267 223.74684491 -32.5625 220.375 C-33.57691162 220.06151611 -33.57691162 220.06151611 -34.61181641 219.74169922 C-49.28213834 215.10841798 -61.93074999 207.39402904 -73.5625 197.375 C-74.29597656 196.78589844 -75.02945313 196.19679687 -75.78515625 195.58984375 C-95.72787637 179.02366883 -108.4634354 152.89707528 -111.5625 127.375 C-111.87417763 122.5172366 -111.9443035 117.67947825 -111.9375 112.8125 C-111.93695618 112.15336609 -111.93641235 111.49423218 -111.93585205 110.81512451 C-111.89428571 99.82731089 -110.93434491 89.82642733 -107.5625 79.375 C-107.35351074 78.69872559 -107.14452148 78.02245117 -106.92919922 77.32568359 C-102.29591798 62.65536166 -94.58152904 50.00675001 -84.5625 38.375 C-83.97339844 37.64152344 -83.38429688 36.90804687 -82.77734375 36.15234375 C-62.64608673 11.91790059 -30.86522816 -0.04314621 0 0 Z M-70.5625 31.375 C-71.09069336 31.8690332 -71.61888672 32.36306641 -72.16308594 32.87207031 C-88.31535298 48.08019337 -98.97148282 65.88379051 -104.5625 87.375 C-104.79582031 88.22964844 -105.02914062 89.08429688 -105.26953125 89.96484375 C-111.81463304 117.51077576 -105.03816058 146.45169459 -90.81640625 170.36865234 C-87.83491836 175.13926517 -84.42203512 179.29631146 -80.5625 183.375 C-80.0684668 183.90319336 -79.57443359 184.43138672 -79.06542969 184.97558594 C-63.85730663 201.12785298 -46.05370949 211.78398282 -24.5625 217.375 C-23.70785156 217.60832031 -22.85320312 217.84164062 -21.97265625 218.08203125 C5.57327576 224.62713304 34.51419459 217.85066058 58.43115234 203.62890625 C63.20176517 200.64741836 67.35881146 197.23453512 71.4375 193.375 C71.96569336 192.8809668 72.49388672 192.38693359 73.03808594 191.87792969 C89.19035298 176.66980663 99.84648282 158.86620949 105.4375 137.375 C105.67082031 136.52035156 105.90414062 135.66570312 106.14453125 134.78515625 C112.68963304 107.23922424 105.91316058 78.29830541 91.69140625 54.38134766 C88.70991836 49.61073483 85.29703512 45.45368854 81.4375 41.375 C80.9434668 40.84680664 80.44943359 40.31861328 79.94042969 39.77441406 C64.73230663 23.62214702 46.92870949 12.96601718 25.4375 7.375 C24.58285156 7.14167969 23.72820312 6.90835937 22.84765625 6.66796875 C-9.18646653 -0.94355786 -46.6902586 8.7854462 -70.5625 31.375 Z " fill="#D2D2D2" transform="translate(113.5625,-0.375)"/>
<path d="M0 0 C1.01449219 -0.00386719 2.02898437 -0.00773437 3.07421875 -0.01171875 C4.13253906 -0.00011719 5.19085938 0.01148437 6.28125 0.0234375 C7.33957031 0.01183594 8.39789063 0.00023438 9.48828125 -0.01171875 C11.01001953 -0.00591797 11.01001953 -0.00591797 12.5625 0 C13.9556543 0.00507568 13.9556543 0.00507568 15.37695312 0.01025391 C17.78125 0.3984375 17.78125 0.3984375 19.57617188 1.68115234 C21.29108455 4.12497238 21.312018 6.4763998 21.19921875 9.3984375 C20.47878221 12.84576003 18.50861571 14.33776119 15.78125 16.3984375 C11.41074094 18.94790112 6.70975105 18.96443144 1.78125 18.3984375 C-2.33828842 16.8438947 -5.66404449 15.03397996 -8.21875 11.3984375 C-8.74199913 8.49411086 -8.55364798 6.41251931 -8.21875 3.3984375 C-5.92513142 0.1118499 -3.86889059 0.01409554 0 0 Z " fill="#21AFE9" transform="translate(109.21875,123.6015625)"/>
<path d="M0 0 C4.63235294 2.26470588 4.63235294 2.26470588 6 5 C6.5730659 12.10601719 6.5730659 12.10601719 4.4375 15.4375 C1.19100111 17.51858903 -1.15247539 17.93249957 -5 18 C-7.94755732 16.65437601 -9.54277272 15.91445456 -11 13 C-11.69093988 5.97544454 -11.69093988 5.97544454 -8.875 2 C-5.47539234 -0.36494446 -4.05412149 -0.67568691 0 0 Z " fill="#25B0E9" transform="translate(118,100)"/>
<path d="M0 0 C4.29085983 0.87568568 6.18527073 2.33673797 9.0625 5.625 C9.86317607 8.68819255 9.58004166 10.36448754 9.0625 13.625 C6.48999516 16.96925629 4.43501107 18.44199852 0.25 19 C-2.9375 18.625 -2.9375 18.625 -5.8125 16.625 C-8.18016331 13.2824165 -8.69476358 11.56486585 -8.421875 7.5625 C-7.28464708 3.01358834 -4.4078842 0.9378477 0 0 Z " fill="#24AFE9" transform="translate(132.9375,81.375)"/>
<path d="M0 0 C3.73152858 1.17474048 5.26415485 1.76958156 7.375 5.0625 C8.0849846 10.0323922 8.16617716 11.91169686 5.3125 16.0625 C1.59692774 18.59225133 -0.2132483 18.8503128 -4.625 18.0625 C-7.55039902 16.07073896 -9.21229794 14.61325925 -10.140625 11.125 C-10.49681493 6.85072086 -9.89164901 5.38117809 -7.0625 2 C-3.625 0.0625 -3.625 0.0625 0 0 Z " fill="#24AFE9" transform="translate(101.625,81.9375)"/>
<path d="M0 0 C11.45862951 -0.36963321 11.45862951 -0.36963321 13.859375 1.26953125 C15.84575279 4.28311126 15.60830922 7.57742505 15 11 C12.88893099 14.46818479 10.8539706 16.63246205 7 18 C4 18 4 18 1.9375 16.0625 C1.298125 15.381875 0.65875 14.70125 0 14 C-0.66 13.67 -1.32 13.34 -2 13 C-1.34 8.71 -0.68 4.42 0 0 Z " fill="#25B0E9" transform="translate(130,106)"/>
<path d="M0 0 C0.66 4.29 1.32 8.58 2 13 C-5.22007722 18.08687259 -5.22007722 18.08687259 -8 18 C-13.49230769 14.01538462 -13.49230769 14.01538462 -15 11 C-15.46260817 3.71392126 -15.46260817 3.71392126 -13.87109375 1.2578125 C-9.96742131 -1.36636814 -4.48013114 -0.14452036 0 0 Z " fill="#25B0E9" transform="translate(101,106)"/>
</svg>
