<?xml version="1.0" encoding="UTF-8"?>
<svg version="1.1" xmlns="http://www.w3.org/2000/svg" width="224" height="224">
<path d="M0 0 C17.48467607 14.30986775 29.45443734 35.28869905 32.71240234 57.71289062 C35.08218434 84.04380166 29.50157501 108.42342178 13.09130859 129.54101562 C11.75676628 131.12030991 10.40280674 132.68342576 9.02880859 134.22851562 C8.37654297 134.97488281 7.72427734 135.72125 7.05224609 136.49023438 C-8.96308576 153.6752253 -32.28799238 163.12441037 -55.546875 164.20263672 C-78.82671062 164.78078711 -101.16056068 157.40053439 -118.97119141 142.22851562 C-119.70853516 141.63554687 -120.44587891 141.04257813 -121.20556641 140.43164062 C-138.81520641 125.73669966 -149.20469285 103.22263626 -151.57055664 80.65039062 C-153.61357172 56.03332005 -146.6883626 32.36394994 -131.30712891 12.96679688 C-97.72993291 -26.39376231 -40.71131143 -31.9951452 0 0 Z " fill="#FEFEFE" transform="translate(171.97119140625,39.771484375)"/>
<path d="M0 0 C0.98870087 0.00081573 0.98870087 0.00081573 1.99737549 0.00164795 C12.98518911 0.04321429 22.98607267 1.00315509 33.4375 4.375 C34.11377441 4.58398926 34.79004883 4.79297852 35.48681641 5.00830078 C50.15713834 9.64158202 62.80574999 17.35597096 74.4375 27.375 C75.17097656 27.96410156 75.90445313 28.55320312 76.66015625 29.16015625 C96.60287637 45.72633117 109.3384354 71.85292472 112.4375 97.375 C112.74917763 102.2327634 112.8193035 107.07052175 112.8125 111.9375 C112.81195618 112.59663391 112.81141235 113.25576782 112.81085205 113.93487549 C112.76928571 124.92268911 111.80934491 134.92357267 108.4375 145.375 C108.12401611 146.38941162 108.12401611 146.38941162 107.80419922 147.42431641 C103.17091798 162.09463834 95.45652904 174.74324999 85.4375 186.375 C84.55384766 187.47521484 84.55384766 187.47521484 83.65234375 188.59765625 C67.08616883 208.54037637 40.95957528 221.2759354 15.4375 224.375 C10.5797366 224.68667763 5.74197825 224.7568035 0.875 224.75 C-0.11370087 224.74918427 -0.11370087 224.74918427 -1.12237549 224.74835205 C-12.11018911 224.70678571 -22.11107267 223.74684491 -32.5625 220.375 C-33.57691162 220.06151611 -33.57691162 220.06151611 -34.61181641 219.74169922 C-49.28213834 215.10841798 -61.93074999 207.39402904 -73.5625 197.375 C-74.29597656 196.78589844 -75.02945313 196.19679687 -75.78515625 195.58984375 C-95.72787637 179.02366883 -108.4634354 152.89707528 -111.5625 127.375 C-111.87417763 122.5172366 -111.9443035 117.67947825 -111.9375 112.8125 C-111.93695618 112.15336609 -111.93641235 111.49423218 -111.93585205 110.81512451 C-111.89428571 99.82731089 -110.93434491 89.82642733 -107.5625 79.375 C-107.35351074 78.69872559 -107.14452148 78.02245117 -106.92919922 77.32568359 C-102.29591798 62.65536166 -94.58152904 50.00675001 -84.5625 38.375 C-83.97339844 37.64152344 -83.38429688 36.90804687 -82.77734375 36.15234375 C-62.64608673 11.91790059 -30.86522816 -0.04314621 0 0 Z M-70.5625 31.375 C-71.09069336 31.8690332 -71.61888672 32.36306641 -72.16308594 32.87207031 C-88.31535298 48.08019337 -98.97148282 65.88379051 -104.5625 87.375 C-104.79582031 88.22964844 -105.02914062 89.08429688 -105.26953125 89.96484375 C-111.81463304 117.51077576 -105.03816058 146.45169459 -90.81640625 170.36865234 C-87.83491836 175.13926517 -84.42203512 179.29631146 -80.5625 183.375 C-80.0684668 183.90319336 -79.57443359 184.43138672 -79.06542969 184.97558594 C-63.85730663 201.12785298 -46.05370949 211.78398282 -24.5625 217.375 C-23.70785156 217.60832031 -22.85320312 217.84164062 -21.97265625 218.08203125 C5.57327576 224.62713304 34.51419459 217.85066058 58.43115234 203.62890625 C63.20176517 200.64741836 67.35881146 197.23453512 71.4375 193.375 C71.96569336 192.8809668 72.49388672 192.38693359 73.03808594 191.87792969 C89.19035298 176.66980663 99.84648282 158.86620949 105.4375 137.375 C105.67082031 136.52035156 105.90414062 135.66570312 106.14453125 134.78515625 C112.68963304 107.23922424 105.91316058 78.29830541 91.69140625 54.38134766 C88.70991836 49.61073483 85.29703512 45.45368854 81.4375 41.375 C80.9434668 40.84680664 80.44943359 40.31861328 79.94042969 39.77441406 C64.73230663 23.62214702 46.92870949 12.96601718 25.4375 7.375 C24.58285156 7.14167969 23.72820312 6.90835937 22.84765625 6.66796875 C-9.18646653 -0.94355786 -46.6902586 8.7854462 -70.5625 31.375 Z " fill="#D2D2D2" transform="translate(111.5625,-0.375)"/>
<path d="M0 0 C0.83660156 0.30808594 1.67320313 0.61617188 2.53515625 0.93359375 C3.39496094 1.25457031 4.25476563 1.57554688 5.140625 1.90625 C6.01589844 2.22722656 6.89117187 2.54820313 7.79296875 2.87890625 C14.25935191 5.27497691 14.25935191 5.27497691 15.390625 6.40625 C15.70359352 10.35612858 15.66936886 14.32052943 15.703125 18.28125 C15.73212891 19.37695312 15.76113281 20.47265625 15.79101562 21.6015625 C15.8733711 32.29510379 13.63002973 40.92527486 6.1171875 48.7578125 C1.62016206 53.05135263 -3.0815211 57.47974696 -9.609375 57.34375 C-17.26139144 54.95249486 -23.85371899 48.80246128 -28.07666016 42.06542969 C-31.8862372 34.35173783 -32.21990621 27.72410229 -31.921875 19.21875 C-31.89931641 17.98060547 -31.87675781 16.74246094 -31.85351562 15.46679688 C-31.79518568 12.44530547 -31.71338756 9.42645479 -31.609375 6.40625 C-26.38770806 4.06562969 -21.16636847 1.73596322 -15.859375 -0.40625 C-14.79203125 -0.84582031 -13.7246875 -1.28539063 -12.625 -1.73828125 C-8.01606052 -3.04573947 -4.39021352 -1.61969043 0 0 Z " fill="#21AEE9" transform="translate(121.609375,84.59375)"/>
<path d="M0 0 C1.32 0.66 2.64 1.32 4 2 C4 5 4 5 2.4609375 6.796875 C1.77257812 7.44140625 1.08421875 8.0859375 0.375 8.75 C-3.34618765 12.32551839 -6.69733298 16.03679957 -10 20 C-13.87511727 19.45015228 -15.59576506 17.72444669 -18.25 14.9375 C-18.95640625 14.20402344 -19.6628125 13.47054687 -20.390625 12.71484375 C-20.92171875 12.14894531 -21.4528125 11.58304688 -22 11 C-21.34 9.68 -20.68 8.36 -20 7 C-16 7 -16 7 -11 11 C-7.37 7.37 -3.74 3.74 0 0 Z " fill="#F1F9FD" transform="translate(122,102)"/>
</svg>
