<?xml version="1.0" encoding="UTF-8"?>
<svg version="1.1" xmlns="http://www.w3.org/2000/svg" width="225" height="224">
<path d="M0 0 C1.6199263 1.35639762 3.22456225 2.73128934 4.8125 4.125 C5.56144531 4.77855469 6.31039062 5.43210937 7.08203125 6.10546875 C24.2552795 22.13583883 33.70812887 45.43606556 34.78662109 68.70068359 C35.3653682 92.00454653 27.96747419 114.27959219 12.8125 132.125 C11.99845703 133.13820312 11.99845703 133.13820312 11.16796875 134.171875 C-3.3744526 151.74538651 -25.75410402 161.86059298 -48.03515625 164.59765625 C-72.85117588 166.72474365 -96.70243342 159.99164274 -116.37890625 144.49609375 C-135.16447078 128.6367924 -147.01441703 107.55175188 -150.1875 83.125 C-151.75781529 55.4412651 -144.88062101 31.13486226 -126.66601562 9.86962891 C-94.02532189 -26.49228059 -38.02981721 -29.48773519 0 0 Z " fill="#1FAEE8" transform="translate(172.1875,38.875)"/>
<path d="M0 0 C1.19625 0.32871094 2.3925 0.65742187 3.625 0.99609375 C31.34698603 9.34156663 55.18504646 28.58962968 69.2265625 53.921875 C73.82521184 62.59128641 77.41642811 71.52690306 80 81 C80.18546387 81.67699951 80.37092773 82.35399902 80.56201172 83.05151367 C82.38282206 90.68965876 82.3722235 98.39520261 82.37060547 106.20141602 C82.37494719 108.53412718 82.41127794 110.86489131 82.44921875 113.19726562 C82.55196525 126.82791093 80.31883545 139.97122489 74.875 152.5625 C74.58133545 153.2524707 74.2876709 153.94244141 73.98510742 154.65332031 C67.95490402 168.28520649 59.58731614 179.58998342 49 190 C47.76636719 191.23169922 47.76636719 191.23169922 46.5078125 192.48828125 C22.12168308 215.63511557 -8.01008643 221.81617471 -40.62207031 221.13623047 C-46.99626662 220.87916184 -52.87343216 219.81882483 -59 218 C-60.794375 217.50693359 -60.794375 217.50693359 -62.625 217.00390625 C-90.34698603 208.65843337 -114.18504646 189.41037032 -128.2265625 164.078125 C-142.55873455 137.07916214 -146.09883768 106.63725945 -137.96875 77.10546875 C-128.68443488 47.15100613 -108.0829747 22.73177035 -80.40625 8.05859375 C-56.44799375 -4.06520984 -25.84287049 -7.67210218 0 0 Z M-105.22265625 32.16015625 C-113.83425791 40.96554923 -120.35536436 50.14103727 -126 61 C-126.47179687 61.87914062 -126.94359375 62.75828125 -127.4296875 63.6640625 C-139.32822366 87.53503876 -140.26453769 116.93256116 -132.33447266 142.11328125 C-130.81808765 146.53472938 -128.98701791 150.76678794 -127 155 C-126.48695312 156.09570312 -125.97390625 157.19140625 -125.4453125 158.3203125 C-112.41552238 184.19286226 -89.37553582 202.71774142 -62.125 211.875 C-34.66848298 220.38024124 -5.77771258 217.84269771 20.01367188 205.04785156 C40.5457786 194.21650913 56.34116001 177.50512267 67 157 C67.70769531 155.68128906 67.70769531 155.68128906 68.4296875 154.3359375 C80.32822366 130.46496124 81.26453769 101.06743884 73.33447266 75.88671875 C71.81808765 71.46527062 69.98701791 67.23321206 68 63 C67.48695313 61.90429688 66.97390625 60.80859375 66.4453125 59.6796875 C53.41552238 33.80713774 30.37553582 15.28225858 3.125 6.125 C-35.09485387 -5.71441419 -76.52785436 4.20124347 -105.22265625 32.16015625 Z " fill="#919191" transform="translate(143,3)"/>
<path d="M0 0 C1.65 0 3.3 0 5 0 C7 2 7 2 7.125 4.625 C7.08375 5.40875 7.0425 6.1925 7 7 C8.22976562 6.96519531 9.45953125 6.93039063 10.7265625 6.89453125 C12.35936127 6.86637955 13.9921749 6.83908087 15.625 6.8125 C16.83736328 6.77479492 16.83736328 6.77479492 18.07421875 6.73632812 C23.16214053 6.6742803 26.5855217 7.17963886 31 10 C34 13.3 34 13.3 34 16 C35.30195312 15.95359375 36.60390625 15.9071875 37.9453125 15.859375 C39.67185196 15.82184153 41.39841636 15.78544307 43.125 15.75 C43.9809375 15.71648437 44.836875 15.68296875 45.71875 15.6484375 C51.33741237 15.56199654 54.58220796 16.17399942 59 20 C61 23 61 23 61 30 C43.18 30 25.36 30 7 30 C7 31.65 7 33.3 7 35 C6.505 35.495 6.505 35.495 6 36 C4.02 36 2.04 36 0 36 C0 24.12 0 12.24 0 0 Z " fill="#DCF2FB" transform="translate(71,132)"/>
<path d="M0 0 C2.625 0.3125 2.625 0.3125 4.3125 2 C6.30348282 5.50792211 7.625 8.24047142 7.625 12.3125 C8.40746094 12.30089844 9.18992188 12.28929688 9.99609375 12.27734375 C11.00800781 12.26832031 12.01992187 12.25929688 13.0625 12.25 C14.07183594 12.23839844 15.08117187 12.22679688 16.12109375 12.21484375 C18.625 12.3125 18.625 12.3125 19.625 13.3125 C20.0625 16.0625 20.0625 16.0625 19.625 19.3125 C18.614375 20.1375 17.60375 20.9625 16.5625 21.8125 C15.593125 22.6375 14.62375 23.4625 13.625 24.3125 C13.68757477 27.50381315 14.20915277 29.48080555 15.625 32.3125 C15.75 35.375 15.75 35.375 15.625 38.3125 C14.625 39.3125 14.625 39.3125 12 39.625 C8.70624677 39.32002285 7.72207042 38.93769239 5.0625 37.25 C1.90123048 35.08196691 1.90123048 35.08196691 -1 35.375 C-3.46558085 36.26001848 -3.46558085 36.26001848 -5.8125 37.875 C-8.89665893 39.60513793 -10.89064269 39.62925976 -14.375 39.3125 C-15.375 38.3125 -15.375 38.3125 -15.5625 35.5 C-15.375 32.3125 -15.375 32.3125 -14.3125 30.25 C-13.18879996 28.30530506 -13.18879996 28.30530506 -13.4375 25.875 C-14.25448873 23.06973214 -14.25448873 23.06973214 -16.9375 20.8125 C-19.375 18.3125 -19.375 18.3125 -19.75 15.5625 C-19.375 13.3125 -19.375 13.3125 -18.375 12.3125 C-16.52212498 12.24023498 -14.66666122 12.2286878 -12.8125 12.25 C-11.80058594 12.25902344 -10.78867188 12.26804687 -9.74609375 12.27734375 C-8.57240234 12.29474609 -8.57240234 12.29474609 -7.375 12.3125 C-7.2409375 11.55453125 -7.106875 10.7965625 -6.96875 10.015625 C-6.03094675 5.74615233 -4.74337219 0.62412792 0 0 Z " fill="#F0F9FD" transform="translate(121.375,97.6875)"/>
<path d="M0 0 C3.86248624 3.34316036 4.54212374 7.20983513 6 12 C9.3 12 12.6 12 16 12 C13.66666667 14.33333333 11.33333333 16.66666667 9 19 C9.46871403 23.1012478 10.83756544 27.04772249 12 31 C6.39215686 29.34313725 6.39215686 29.34313725 4 27.25 C1.9600174 25.65290966 1.9600174 25.65290966 -0.9375 26.625 C-3.7824591 27.90232858 -6.34348627 29.37657494 -9 31 C-9.66 31 -10.32 31 -11 31 C-10.77183594 30.39671875 -10.54367188 29.7934375 -10.30859375 29.171875 C-10.02113281 28.37265625 -9.73367187 27.5734375 -9.4375 26.75 C-9.14746094 25.96109375 -8.85742188 25.1721875 -8.55859375 24.359375 C-7.93642053 21.73145455 -7.96473698 20.47945494 -9 18 C-10.38046757 16.50624089 -10.38046757 16.50624089 -12.0625 15.3125 C-13.031875 14.549375 -14.00125 13.78625 -15 13 C-15 12.67 -15 12.34 -15 12 C-14.00419922 12.08314453 -14.00419922 12.08314453 -12.98828125 12.16796875 C-9.99214559 12.18983835 -7.81988557 12.05046119 -5 11 C-2.58258141 7.57842292 -1.24640792 3.98194529 0 0 Z " fill="#25B0E9" transform="translate(121,102)"/>
<path d="M0 0 C3.27170847 -0.10775984 6.53988546 -0.18719451 9.8125 -0.25 C10.74126953 -0.28351563 11.67003906 -0.31703125 12.62695312 -0.3515625 C13.9659668 -0.37089844 13.9659668 -0.37089844 15.33203125 -0.390625 C16.56530151 -0.4220459 16.56530151 -0.4220459 17.82348633 -0.45410156 C20 0 20 0 21.79174805 2.02441406 C22.38983276 3.0023291 22.38983276 3.0023291 23 4 C20.69 4.33 18.38 4.66 16 5 C16 5.99 16 6.98 16 8 C17.38505737 8.01401855 17.38505737 8.01401855 18.7980957 8.02832031 C22.22594506 8.07234734 25.65254051 8.13396107 29.07983398 8.20751953 C30.56278942 8.23573541 32.04589543 8.25694702 33.52905273 8.27099609 C35.66207997 8.2924192 37.79329606 8.33905782 39.92578125 8.390625 C41.85031128 8.4220459 41.85031128 8.4220459 43.8137207 8.45410156 C47 9 47 9 50 13 C33.5 13 17 13 0 13 C0 8.71 0 4.42 0 0 Z " fill="#1FAEE9" transform="translate(78,144)"/>
</svg>
