<?xml version="1.0" encoding="UTF-8"?>
<svg version="1.1" xmlns="http://www.w3.org/2000/svg" width="225" height="224">
<path d="M0 0 C1.6199263 1.35639762 3.22456225 2.73128934 4.8125 4.125 C5.56144531 4.77855469 6.31039062 5.43210937 7.08203125 6.10546875 C24.2552795 22.13583883 33.70812887 45.43606556 34.78662109 68.70068359 C35.3653682 92.00454653 27.96747419 114.27959219 12.8125 132.125 C11.99845703 133.13820312 11.99845703 133.13820312 11.16796875 134.171875 C-3.3744526 151.74538651 -25.75410402 161.86059298 -48.03515625 164.59765625 C-72.85117588 166.72474365 -96.70243342 159.99164274 -116.37890625 144.49609375 C-135.16447078 128.6367924 -147.01441703 107.55175188 -150.1875 83.125 C-151.75781529 55.4412651 -144.88062101 31.13486226 -126.66601562 9.86962891 C-94.02532189 -26.49228059 -38.02981721 -29.48773519 0 0 Z " fill="#1FAEE9" transform="translate(172.1875,38.875)"/>
<path d="M0 0 C1.19625 0.32871094 2.3925 0.65742187 3.625 0.99609375 C31.34698603 9.34156663 55.18504646 28.58962968 69.2265625 53.921875 C73.82521184 62.59128641 77.41642811 71.52690306 80 81 C80.18546387 81.67699951 80.37092773 82.35399902 80.56201172 83.05151367 C82.38282206 90.68965876 82.3722235 98.39520261 82.37060547 106.20141602 C82.37494719 108.53412718 82.41127794 110.86489131 82.44921875 113.19726562 C82.55196525 126.82791093 80.31883545 139.97122489 74.875 152.5625 C74.58133545 153.2524707 74.2876709 153.94244141 73.98510742 154.65332031 C67.95490402 168.28520649 59.58731614 179.58998342 49 190 C47.76636719 191.23169922 47.76636719 191.23169922 46.5078125 192.48828125 C22.12168308 215.63511557 -8.01008643 221.81617471 -40.62207031 221.13623047 C-46.99626662 220.87916184 -52.87343216 219.81882483 -59 218 C-60.794375 217.50693359 -60.794375 217.50693359 -62.625 217.00390625 C-90.34698603 208.65843337 -114.18504646 189.41037032 -128.2265625 164.078125 C-142.55873455 137.07916214 -146.09883768 106.63725945 -137.96875 77.10546875 C-128.68443488 47.15100613 -108.0829747 22.73177035 -80.40625 8.05859375 C-56.44799375 -4.06520984 -25.84287049 -7.67210218 0 0 Z M-105.22265625 32.16015625 C-113.83425791 40.96554923 -120.35536436 50.14103727 -126 61 C-126.47179687 61.87914062 -126.94359375 62.75828125 -127.4296875 63.6640625 C-139.32822366 87.53503876 -140.26453769 116.93256116 -132.33447266 142.11328125 C-130.81808765 146.53472938 -128.98701791 150.76678794 -127 155 C-126.48695312 156.09570312 -125.97390625 157.19140625 -125.4453125 158.3203125 C-112.41552238 184.19286226 -89.37553582 202.71774142 -62.125 211.875 C-34.66848298 220.38024124 -5.77771258 217.84269771 20.01367188 205.04785156 C40.5457786 194.21650913 56.34116001 177.50512267 67 157 C67.70769531 155.68128906 67.70769531 155.68128906 68.4296875 154.3359375 C80.32822366 130.46496124 81.26453769 101.06743884 73.33447266 75.88671875 C71.81808765 71.46527062 69.98701791 67.23321206 68 63 C67.48695313 61.90429688 66.97390625 60.80859375 66.4453125 59.6796875 C53.41552238 33.80713774 30.37553582 15.28225858 3.125 6.125 C-35.09485387 -5.71441419 -76.52785436 4.20124347 -105.22265625 32.16015625 Z " fill="#919191" transform="translate(143,3)"/>
<path d="M0 0 C1.00730415 -0.00262848 1.00730415 -0.00262848 2.03495789 -0.00531006 C4.26486765 -0.00972777 6.49469874 -0.00679089 8.72460938 -0.00341797 C10.26778173 -0.00409103 11.81095398 -0.00506108 13.35412598 -0.00631714 C16.59237678 -0.007794 19.83060005 -0.00563993 23.06884766 -0.00097656 C27.2287846 0.00472073 31.38865704 0.00144166 35.54859161 -0.00454903 C38.73635345 -0.00815496 41.92409989 -0.00701591 45.11186218 -0.00442123 C46.6461335 -0.00375205 48.1804062 -0.00458008 49.7146759 -0.00690079 C51.85539478 -0.00942784 53.9960078 -0.00558601 56.13671875 0 C57.96752991 0.00119339 57.96752991 0.00119339 59.83532715 0.00241089 C62.56835938 0.12939453 62.56835938 0.12939453 63.56835938 1.12939453 C63.74861699 4.10216774 63.84648132 7.02954709 63.88085938 10.00439453 C63.92436523 11.24769531 63.92436523 11.24769531 63.96875 12.51611328 C64.03319095 18.65287473 64.03319095 18.65287473 61.54882812 21.19970703 C60.89527344 21.50650391 60.24171875 21.81330078 59.56835938 22.12939453 C60.06335938 24.60439453 60.06335938 24.60439453 60.56835938 27.12939453 C62.05335938 27.62439453 62.05335938 27.62439453 63.56835938 28.12939453 C63.59724452 31.27520876 63.61511861 34.42098922 63.63085938 37.56689453 C63.63923828 38.46472656 63.64761719 39.36255859 63.65625 40.28759766 C63.65947266 41.14160156 63.66269531 41.99560547 63.66601562 42.87548828 C63.67125244 43.66624756 63.67648926 44.45700684 63.68188477 45.27172852 C63.56835938 47.12939453 63.56835938 47.12939453 62.56835938 48.12939453 C60.42635614 48.22891746 58.28103233 48.25739132 56.13671875 48.25878906 C55.1294146 48.26141754 55.1294146 48.26141754 54.10176086 48.26409912 C51.8718511 48.26851683 49.64202001 48.26557995 47.41210938 48.26220703 C45.86893702 48.26288009 44.32576477 48.26385014 42.78259277 48.2651062 C39.54434197 48.26658306 36.3061187 48.264429 33.06787109 48.25976562 C28.90793415 48.25406834 24.74806171 48.2573474 20.58812714 48.26333809 C17.4003653 48.26694402 14.21261886 48.26580497 11.02485657 48.2632103 C9.49058525 48.26254112 7.95631255 48.26336914 6.42204285 48.26568985 C4.28132397 48.26821691 2.14071095 48.26437508 0 48.25878906 C-1.83081116 48.25759567 -1.83081116 48.25759567 -3.6986084 48.25637817 C-6.43164062 48.12939453 -6.43164062 48.12939453 -7.43164062 47.12939453 C-7.63862103 44.1547905 -7.7561714 41.23207869 -7.80664062 38.25439453 C-7.84402344 37.42552734 -7.88140625 36.59666016 -7.91992188 35.74267578 C-7.95353396 33.43091121 -7.93602034 31.38703948 -7.43164062 29.12939453 C-4.90820312 27.05908203 -4.90820312 27.05908203 -2.43164062 26.12939453 C-2.61992834 23.68459375 -2.61992834 23.68459375 -3.43164062 21.12939453 C-5.42550928 19.94471187 -5.42550928 19.94471187 -7.43164062 19.12939453 C-7.4584805 16.1501686 -7.478401 13.17118158 -7.49414062 10.19189453 C-7.50251953 9.34175781 -7.51089844 8.49162109 -7.51953125 7.61572266 C-7.52275391 6.80683594 -7.52597656 5.99794922 -7.52929688 5.16455078 C-7.53453369 4.41568604 -7.53977051 3.66682129 -7.54516602 2.89526367 C-7.2763002 -1.28690074 -3.3373785 0.00217543 0 0 Z " fill="#26B0E9" transform="translate(85.431640625,87.87060546875)"/>
<path d="M0 0 C1.00730415 -0.00262848 1.00730415 -0.00262848 2.03495789 -0.00531006 C4.26486765 -0.00972777 6.49469874 -0.00679089 8.72460938 -0.00341797 C10.26778173 -0.00409103 11.81095398 -0.00506108 13.35412598 -0.00631714 C16.59237678 -0.007794 19.83060005 -0.00563993 23.06884766 -0.00097656 C27.2287846 0.00472073 31.38865704 0.00144166 35.54859161 -0.00454903 C38.73635345 -0.00815496 41.92409989 -0.00701591 45.11186218 -0.00442123 C46.6461335 -0.00375205 48.1804062 -0.00458008 49.7146759 -0.00690079 C51.85539478 -0.00942784 53.9960078 -0.00558601 56.13671875 0 C57.96752991 0.00119339 57.96752991 0.00119339 59.83532715 0.00241089 C62.56835938 0.12939453 62.56835938 0.12939453 63.56835938 1.12939453 C63.74861699 4.10216774 63.84648132 7.02954709 63.88085938 10.00439453 C63.92436523 11.24769531 63.92436523 11.24769531 63.96875 12.51611328 C64.03319095 18.65287473 64.03319095 18.65287473 61.54882812 21.19970703 C60.89527344 21.50650391 60.24171875 21.81330078 59.56835938 22.12939453 C60.06335938 24.60439453 60.06335938 24.60439453 60.56835938 27.12939453 C62.05335938 27.62439453 62.05335938 27.62439453 63.56835938 28.12939453 C63.59724452 31.27520876 63.61511861 34.42098922 63.63085938 37.56689453 C63.63923828 38.46472656 63.64761719 39.36255859 63.65625 40.28759766 C63.65947266 41.14160156 63.66269531 41.99560547 63.66601562 42.87548828 C63.67125244 43.66624756 63.67648926 44.45700684 63.68188477 45.27172852 C63.56835938 47.12939453 63.56835938 47.12939453 62.56835938 48.12939453 C60.42635614 48.22891746 58.28103233 48.25739132 56.13671875 48.25878906 C55.1294146 48.26141754 55.1294146 48.26141754 54.10176086 48.26409912 C51.8718511 48.26851683 49.64202001 48.26557995 47.41210938 48.26220703 C45.86893702 48.26288009 44.32576477 48.26385014 42.78259277 48.2651062 C39.54434197 48.26658306 36.3061187 48.264429 33.06787109 48.25976562 C28.90793415 48.25406834 24.74806171 48.2573474 20.58812714 48.26333809 C17.4003653 48.26694402 14.21261886 48.26580497 11.02485657 48.2632103 C9.49058525 48.26254112 7.95631255 48.26336914 6.42204285 48.26568985 C4.28132397 48.26821691 2.14071095 48.26437508 0 48.25878906 C-1.83081116 48.25759567 -1.83081116 48.25759567 -3.6986084 48.25637817 C-6.43164062 48.12939453 -6.43164062 48.12939453 -7.43164062 47.12939453 C-7.63862103 44.1547905 -7.7561714 41.23207869 -7.80664062 38.25439453 C-7.84402344 37.42552734 -7.88140625 36.59666016 -7.91992188 35.74267578 C-7.95353396 33.43091121 -7.93602034 31.38703948 -7.43164062 29.12939453 C-4.90820312 27.05908203 -4.90820312 27.05908203 -2.43164062 26.12939453 C-2.61992834 23.68459375 -2.61992834 23.68459375 -3.43164062 21.12939453 C-5.42550928 19.94471187 -5.42550928 19.94471187 -7.43164062 19.12939453 C-7.4584805 16.1501686 -7.478401 13.17118158 -7.49414062 10.19189453 C-7.50251953 9.34175781 -7.51089844 8.49162109 -7.51953125 7.61572266 C-7.52275391 6.80683594 -7.52597656 5.99794922 -7.52929688 5.16455078 C-7.53453369 4.41568604 -7.53977051 3.66682129 -7.54516602 2.89526367 C-7.2763002 -1.28690074 -3.3373785 0.00217543 0 0 Z M-4.43164062 4.12939453 C-4.43164062 8.08939453 -4.43164062 12.04939453 -4.43164062 16.12939453 C-1.73032958 18.87675071 -1.73032958 18.87675071 1.56835938 20.12939453 C2.22835937 20.78939453 2.88835937 21.44939453 3.56835938 22.12939453 C4.63382891 18.93298594 4.64263776 16.47192178 4.56835938 13.12939453 C5.22835937 12.79939453 5.88835937 12.46939453 6.56835938 12.12939453 C6.23835938 10.14939453 5.90835938 8.16939453 5.56835938 6.12939453 C6.88835937 6.45939453 8.20835938 6.78939453 9.56835938 7.12939453 C9.56835938 8.77939453 9.56835938 10.42939453 9.56835938 12.12939453 C10.22835937 12.45939453 10.88835937 12.78939453 11.56835938 13.12939453 C11.56835938 22.36939453 11.56835938 31.60939453 11.56835938 41.12939453 C8.59835938 41.62439453 8.59835938 41.62439453 5.56835938 42.12939453 C4.56835938 41.12939453 4.56835938 41.12939453 4.47070312 37.75048828 C4.47737568 36.35592376 4.48933406 34.96137711 4.50585938 33.56689453 C4.51037109 32.85597656 4.51488281 32.14505859 4.51953125 31.41259766 C4.53135073 29.6514944 4.54928674 27.89043417 4.56835938 26.12939453 C3.90835938 25.79939453 3.24835938 25.46939453 2.56835938 25.12939453 C2.15585938 25.91314453 1.74335937 26.69689453 1.31835938 27.50439453 C-0.43164062 30.12939453 -0.43164062 30.12939453 -4.43164062 32.12939453 C-4.43164062 36.08939453 -4.43164062 40.04939453 -4.43164062 44.12939453 C17.01835938 44.12939453 38.46835938 44.12939453 60.56835938 44.12939453 C61.8807168 33.00361596 61.8807168 33.00361596 58.06835938 29.25439453 C57.24335938 28.55314453 56.41835937 27.85189453 55.56835938 27.12939453 C54.94335938 24.12939453 54.94335938 24.12939453 55.56835938 21.12939453 C56.39335937 20.42814453 57.21835938 19.72689453 58.06835938 19.00439453 C61.8807168 15.2551731 61.8807168 15.2551731 60.56835938 4.12939453 C39.11835937 4.12939453 17.66835937 4.12939453 -4.43164062 4.12939453 Z " fill="#F1FAFD" transform="translate(85.431640625,87.87060546875)"/>
<path d="M0 0 C0.65830811 -0.00191345 1.31661621 -0.0038269 1.99487305 -0.00579834 C3.3868854 -0.0071595 4.77891047 -0.00346783 6.17089844 0.00488281 C8.30432589 0.015584 10.43691131 0.00498594 12.5703125 -0.0078125 C13.92187686 -0.00649089 15.2734407 -0.00392847 16.625 0 C18.47544922 0.00338379 18.47544922 0.00338379 20.36328125 0.00683594 C23.3125 0.265625 23.3125 0.265625 25.3125 2.265625 C25.578125 4.578125 25.578125 4.578125 25.5625 7.265625 C25.57023437 8.5959375 25.57023437 8.5959375 25.578125 9.953125 C25.3125 12.265625 25.3125 12.265625 23.3125 14.265625 C20.36328125 14.52441406 20.36328125 14.52441406 16.625 14.53125 C15.96669189 14.53316345 15.30838379 14.5350769 14.63012695 14.53704834 C13.2381146 14.5384095 11.84608953 14.53471783 10.45410156 14.52636719 C8.32067411 14.515666 6.18808869 14.52626406 4.0546875 14.5390625 C2.70312314 14.53774089 1.3515593 14.53517847 0 14.53125 C-1.23363281 14.52899414 -2.46726562 14.52673828 -3.73828125 14.52441406 C-6.6875 14.265625 -6.6875 14.265625 -8.6875 12.265625 C-8.953125 9.953125 -8.953125 9.953125 -8.9375 7.265625 C-8.94265625 6.37875 -8.9478125 5.491875 -8.953125 4.578125 C-8.33708179 -0.78507468 -4.45106783 0.00813936 0 0 Z " fill="#D9F1FB" transform="translate(112.6875,95.734375)"/>
<path d="M0 0 C4.62 0 9.24 0 14 0 C14 0.66 14 1.32 14 2 C12.68 2 11.36 2 10 2 C10.33 3.98 10.66 5.96 11 8 C10.01 8.495 10.01 8.495 9 9 C9.04125 10.11375 9.0825 11.2275 9.125 12.375 C9 16 9 16 7 18 C6.21625 17.195625 5.4325 16.39125 4.625 15.5625 C2.28017144 13.01309583 2.28017144 13.01309583 0 12 C0 8.04 0 4.08 0 0 Z " fill="#28B1E9" transform="translate(81,92)"/>
<path d="M0 0 C3.4375 0.8125 3.4375 0.8125 5.4375 3.8125 C5.25 7.375 5.25 7.375 4.4375 10.8125 C1.4375 12.8125 1.4375 12.8125 -2.125 12.625 C-5.5625 11.8125 -5.5625 11.8125 -7.5625 8.8125 C-7.375 5.25 -7.375 5.25 -6.5625 1.8125 C-3.5625 -0.1875 -3.5625 -0.1875 0 0 Z " fill="#F0F9FD" transform="translate(132.5625,116.1875)"/>
<path d="M0 0 C0.66 0.33 1.32 0.66 2 1 C1.98839844 2.04800781 1.97679688 3.09601563 1.96484375 4.17578125 C1.95546345 5.55468572 1.9463635 6.93359211 1.9375 8.3125 C1.92912109 9.00279297 1.92074219 9.69308594 1.91210938 10.40429688 C1.89692094 13.5483025 1.99806673 15.99420019 3 19 C-0.3 19 -3.6 19 -7 19 C-7.13504138 17.06440687 -7.23201129 15.126128 -7.3125 13.1875 C-7.37050781 12.10855469 -7.42851563 11.02960938 -7.48828125 9.91796875 C-7 7 -7 7 -4.5625 5.25 C-3.2940625 4.63125 -3.2940625 4.63125 -2 4 C-0.67206394 1.93299345 -0.67206394 1.93299345 0 0 Z " fill="#29B1EA" transform="translate(88,113)"/>
<path d="M0 0 C8.58 0 17.16 0 26 0 C26 1.32 26 2.64 26 4 C17.42 4 8.84 4 0 4 C0 2.68 0 1.36 0 0 Z " fill="#20AEE9" transform="translate(108,101)"/>
<path d="M0 0 C6.27 0 12.54 0 19 0 C19 0.99 19 1.98 19 3 C12.73 3 6.46 3 0 3 C0 2.01 0 1.02 0 0 Z " fill="#F9FCFE" transform="translate(104,124)"/>
<path d="M0 0 C4.29 0 8.58 0 13 0 C13 0.99 13 1.98 13 3 C8.71 3 4.42 3 0 3 C0 2.01 0 1.02 0 0 Z " fill="#F8FCFE" transform="translate(110,118)"/>
<path d="M0 0 C1.98 0.495 1.98 0.495 4 1 C3.67 2.32 3.34 3.64 3 5 C1.68 4.67 0.36 4.34 -1 4 C-0.67 2.68 -0.34 1.36 0 0 Z " fill="#36B6EB" transform="translate(130,120)"/>
</svg>
