<?xml version="1.0" encoding="UTF-8"?>
<svg version="1.1" xmlns="http://www.w3.org/2000/svg" width="224" height="224">
<path d="M0 0 C17.48467607 14.30986775 29.45443734 35.28869905 32.71240234 57.71289062 C35.08218434 84.04380166 29.50157501 108.42342178 13.09130859 129.54101562 C11.75676628 131.12030991 10.40280674 132.68342576 9.02880859 134.22851562 C8.37654297 134.97488281 7.72427734 135.72125 7.05224609 136.49023438 C-8.96308576 153.6752253 -32.28799238 163.12441037 -55.546875 164.20263672 C-78.82671062 164.78078711 -101.16056068 157.40053439 -118.97119141 142.22851562 C-119.70853516 141.63554687 -120.44587891 141.04257813 -121.20556641 140.43164062 C-138.81520641 125.73669966 -149.20469285 103.22263626 -151.57055664 80.65039062 C-153.61357172 56.03332005 -146.6883626 32.36394994 -131.30712891 12.96679688 C-97.72993291 -26.39376231 -40.71131143 -31.9951452 0 0 Z " fill="#1FAEE9" transform="translate(171.97119140625,39.771484375)"/>
<path d="M0 0 C0.98870087 0.00081573 0.98870087 0.00081573 1.99737549 0.00164795 C12.98518911 0.04321429 22.98607267 1.00315509 33.4375 4.375 C34.11377441 4.58398926 34.79004883 4.79297852 35.48681641 5.00830078 C50.15713834 9.64158202 62.80574999 17.35597096 74.4375 27.375 C75.17097656 27.96410156 75.90445313 28.55320312 76.66015625 29.16015625 C96.60287637 45.72633117 109.3384354 71.85292472 112.4375 97.375 C112.74917763 102.2327634 112.8193035 107.07052175 112.8125 111.9375 C112.81195618 112.59663391 112.81141235 113.25576782 112.81085205 113.93487549 C112.76928571 124.92268911 111.80934491 134.92357267 108.4375 145.375 C108.12401611 146.38941162 108.12401611 146.38941162 107.80419922 147.42431641 C103.17091798 162.09463834 95.45652904 174.74324999 85.4375 186.375 C84.55384766 187.47521484 84.55384766 187.47521484 83.65234375 188.59765625 C67.08616883 208.54037637 40.95957528 221.2759354 15.4375 224.375 C10.5797366 224.68667763 5.74197825 224.7568035 0.875 224.75 C-0.11370087 224.74918427 -0.11370087 224.74918427 -1.12237549 224.74835205 C-12.11018911 224.70678571 -22.11107267 223.74684491 -32.5625 220.375 C-33.57691162 220.06151611 -33.57691162 220.06151611 -34.61181641 219.74169922 C-49.28213834 215.10841798 -61.93074999 207.39402904 -73.5625 197.375 C-74.29597656 196.78589844 -75.02945313 196.19679687 -75.78515625 195.58984375 C-95.72787637 179.02366883 -108.4634354 152.89707528 -111.5625 127.375 C-111.87417763 122.5172366 -111.9443035 117.67947825 -111.9375 112.8125 C-111.93695618 112.15336609 -111.93641235 111.49423218 -111.93585205 110.81512451 C-111.89428571 99.82731089 -110.93434491 89.82642733 -107.5625 79.375 C-107.35351074 78.69872559 -107.14452148 78.02245117 -106.92919922 77.32568359 C-102.29591798 62.65536166 -94.58152904 50.00675001 -84.5625 38.375 C-83.97339844 37.64152344 -83.38429688 36.90804687 -82.77734375 36.15234375 C-62.64608673 11.91790059 -30.86522816 -0.04314621 0 0 Z M-70.5625 31.375 C-71.09069336 31.8690332 -71.61888672 32.36306641 -72.16308594 32.87207031 C-88.31535298 48.08019337 -98.97148282 65.88379051 -104.5625 87.375 C-104.79582031 88.22964844 -105.02914062 89.08429688 -105.26953125 89.96484375 C-111.81463304 117.51077576 -105.03816058 146.45169459 -90.81640625 170.36865234 C-87.83491836 175.13926517 -84.42203512 179.29631146 -80.5625 183.375 C-80.0684668 183.90319336 -79.57443359 184.43138672 -79.06542969 184.97558594 C-63.85730663 201.12785298 -46.05370949 211.78398282 -24.5625 217.375 C-23.70785156 217.60832031 -22.85320312 217.84164062 -21.97265625 218.08203125 C5.57327576 224.62713304 34.51419459 217.85066058 58.43115234 203.62890625 C63.20176517 200.64741836 67.35881146 197.23453512 71.4375 193.375 C71.96569336 192.8809668 72.49388672 192.38693359 73.03808594 191.87792969 C89.19035298 176.66980663 99.84648282 158.86620949 105.4375 137.375 C105.67082031 136.52035156 105.90414062 135.66570312 106.14453125 134.78515625 C112.68963304 107.23922424 105.91316058 78.29830541 91.69140625 54.38134766 C88.70991836 49.61073483 85.29703512 45.45368854 81.4375 41.375 C80.9434668 40.84680664 80.44943359 40.31861328 79.94042969 39.77441406 C64.73230663 23.62214702 46.92870949 12.96601718 25.4375 7.375 C24.58285156 7.14167969 23.72820312 6.90835937 22.84765625 6.66796875 C-9.18646653 -0.94355786 -46.6902586 8.7854462 -70.5625 31.375 Z " fill="#919191" transform="translate(111.5625,-0.375)"/>
<path d="M0 0 C1.99390724 -0.08553145 3.98324124 -0.26225868 5.97094727 -0.44116211 C14.65895945 -0.70469704 19.90616777 1.25824195 26.27758789 7.08422852 C33.09726943 14.06320376 34.42857592 20.638349 34.37382507 30.18504333 C34.27065034 33.22340136 34.09542463 36.25251182 33.91821289 39.28735352 C33.8599826 41.36985683 33.80850281 43.4525603 33.76391602 45.53540039 C33.65590311 49.31111696 33.53434931 53.08362663 33.32080078 56.85498047 C33.27999893 57.60471634 33.23919708 58.35445221 33.19715881 59.12690735 C32.85571289 60.97485352 32.85571289 60.97485352 30.85571289 62.97485352 C28.25415039 63.17016602 28.25415039 63.17016602 25.23071289 63.09985352 C24.22782227 63.08180664 23.22493164 63.06375977 22.19165039 63.04516602 C21.03536133 63.01036133 21.03536133 63.01036133 19.85571289 62.97485352 C19.85571289 61.65485352 19.85571289 60.33485352 19.85571289 58.97485352 C22.82571289 58.97485352 25.79571289 58.97485352 28.85571289 58.97485352 C28.85571289 46.10485352 28.85571289 33.23485352 28.85571289 19.97485352 C24.89571289 19.97485352 20.93571289 19.97485352 16.85571289 19.97485352 C15.86571289 18.98485352 14.87571289 17.99485352 13.85571289 16.97485352 C13.85571289 13.01485352 13.85571289 9.05485352 13.85571289 4.97485352 C5.93571289 4.97485352 -1.98428711 4.97485352 -10.14428711 4.97485352 C-10.14428711 17.84485352 -10.14428711 30.71485352 -10.14428711 43.97485352 C-11.46428711 43.97485352 -12.78428711 43.97485352 -14.14428711 43.97485352 C-14.19363367 38.17245737 -14.22998113 32.3701827 -14.25415039 26.56762695 C-14.26422338 24.59267042 -14.27788232 22.61772886 -14.29516602 20.64282227 C-14.3193575 17.80814933 -14.33075702 14.97367314 -14.33959961 12.13891602 C-14.34992218 11.25241364 -14.36024475 10.36591125 -14.37088013 9.45254517 C-14.37127781 7.291994 -14.26701245 5.13191633 -14.14428711 2.97485352 C-10.5079546 -0.661479 -4.93408446 0.16145332 0 0 Z " fill="#EEF8FD" transform="translate(111.144287109375,75.025146484375)"/>
<path d="M0 0 C2.41015625 1.41015625 2.41015625 1.41015625 4 3 C4 3.66 4 4.32 4 5 C4.74443359 4.566875 4.74443359 4.566875 5.50390625 4.125 C10.14594229 1.58817575 13.57852594 0.25587611 19 1 C20.9375 2.0625 20.9375 2.0625 22 4 C22.8125 7.25 22.8125 7.25 22 11 C14.07063797 18.71189008 2.200397 25.24097945 -8.82421875 25.16796875 C-13.95974983 24.8963478 -18.95917401 23.98529234 -24 23 C-24.33 21.68 -24.66 20.36 -25 19 C-24.10539062 19.0721875 -23.21078125 19.144375 -22.2890625 19.21875 C-20.47535156 19.35796875 -20.47535156 19.35796875 -18.625 19.5 C-16.84996094 19.63921875 -16.84996094 19.63921875 -15.0390625 19.78125 C-14.39928467 19.81573242 -13.75950684 19.85021484 -13.1003418 19.88574219 C-11.60777116 19.96693747 -10.11680127 20.08036517 -8.62817383 20.21582031 C-1.55601705 20.62076998 2.7277625 18.58774366 8.5625 14.75 C9.36751953 14.25886719 10.17253906 13.76773438 11.00195312 13.26171875 C15.28344163 10.83288665 15.28344163 10.83288665 17.73022461 6.82519531 C17.81925049 6.22288086 17.90827637 5.62056641 18 5 C13.82057266 6.12957496 10.58108363 7.8664043 6.9375 10.125 C0.65142401 13.69230483 -4.93477414 13.60655357 -12 13 C-11.67 11.68 -11.34 10.36 -11 9 C-7.37 8.67 -3.74 8.34 0 8 C-0.33 7.01 -0.66 6.02 -1 5 C-8.53206095 4.42649282 -13.78795682 4.63438446 -20.16015625 8.90625 C-22 10 -22 10 -25 10 C-25 8.68 -25 7.36 -25 6 C-16.95872733 0.48598446 -9.76471903 -1.60464809 0 0 Z " fill="#F0F9FD" transform="translate(105,123)"/>
<path d="M0 0 C4.62 0 9.24 0 14 0 C13.67 1.32 13.34 2.64 13 4 C9.04 4 5.08 4 1 4 C0.67 2.68 0.34 1.36 0 0 Z " fill="#E6F6FC" transform="translate(117,116)"/>
<path d="M0 0 C4.29 0 8.58 0 13 0 C13 1.32 13 2.64 13 4 C8.71 4 4.42 4 0 4 C0 2.68 0 1.36 0 0 Z " fill="#F3FAFE" transform="translate(118,107)"/>
<path d="M0 0 C4.29 0 8.58 0 13 0 C13 1.32 13 2.64 13 4 C8.71 4 4.42 4 0 4 C0 2.68 0 1.36 0 0 Z " fill="#F4FBFD" transform="translate(118,98)"/>
<path d="M0 0 C1.14926266 0.95421808 2.29430541 1.91352045 3.4375 2.875 C4.07558594 3.40867187 4.71367187 3.94234375 5.37109375 4.4921875 C7 6 7 6 8 8 C5.36 8 2.72 8 0 8 C0 5.36 0 2.72 0 0 Z " fill="#31B4EA" transform="translate(129,83)"/>
<path d="M0 0 C1.65 0 3.3 0 5 0 C4.67 1.32 4.34 2.64 4 4 C2.68 4 1.36 4 0 4 C0 2.68 0 1.36 0 0 Z " fill="#D9F1FB" transform="translate(108,116)"/>
<path d="M0 0 C2.475 0.495 2.475 0.495 5 1 C4.67 1.99 4.34 2.98 4 4 C2.68 4 1.36 4 0 4 C0 2.68 0 1.36 0 0 Z " fill="#EAF7FD" transform="translate(108,107)"/>
<path d="M0 0 C2.475 0.495 2.475 0.495 5 1 C4.67 1.99 4.34 2.98 4 4 C2.68 4 1.36 4 0 4 C0 2.68 0 1.36 0 0 Z " fill="#EAF7FC" transform="translate(108,98)"/>
<path d="M0 0 C1.98 0.495 1.98 0.495 4 1 C4 1.99 4 2.98 4 4 C2.35 4 0.7 4 -1 4 C-0.67 2.68 -0.34 1.36 0 0 Z " fill="#DFF3FB" transform="translate(109,89)"/>
</svg>
