<?xml version="1.0" encoding="UTF-8"?>
<svg version="1.1" xmlns="http://www.w3.org/2000/svg" width="225" height="224">
<path d="M0 0 C1.6199263 1.35639762 3.22456225 2.73128934 4.8125 4.125 C5.56144531 4.77855469 6.31039062 5.43210937 7.08203125 6.10546875 C24.2552795 22.13583883 33.70812887 45.43606556 34.78662109 68.70068359 C35.36477149 91.98051921 27.98451877 114.31436927 12.8125 132.125 C12.21953125 132.86234375 11.6265625 133.5996875 11.015625 134.359375 C-3.67931597 151.96901501 -26.19337937 162.35850144 -48.765625 164.72436523 C-73.38269557 166.76738031 -97.05206568 159.84217119 -116.44921875 144.4609375 C-135.15876746 128.50043803 -147.01047631 107.58208799 -150.1875 83.125 C-151.75781529 55.4412651 -144.88062101 31.13486226 -126.66601562 9.86962891 C-94.02532189 -26.49228059 -38.02981721 -29.48773519 0 0 Z " fill="#1FAEE9" transform="translate(173.1875,38.875)"/>
<path d="M0 0 C1.19625 0.32871094 2.3925 0.65742187 3.625 0.99609375 C31.34698603 9.34156663 55.18504646 28.58962968 69.2265625 53.921875 C74.88925556 64.60258929 80.99481648 77.35435575 81.19287109 89.60644531 C81.20893402 90.51549622 81.22499695 91.42454712 81.24154663 92.36114502 C81.28658141 96.5509737 81.32714377 100.74064852 81.35009766 104.93066406 C81.36653886 107.12217923 81.39366881 109.31364347 81.43212891 111.50488281 C81.66756096 125.0125412 81.07805525 136.38197628 76 149 C75.61110596 150.07145264 75.22221191 151.14290527 74.8215332 152.24682617 C69.44815784 166.90822321 60.02404779 179.16056545 49 190 C47.76636719 191.23169922 47.76636719 191.23169922 46.5078125 192.48828125 C22.12168308 215.63511557 -8.01008643 221.81617471 -40.62207031 221.13623047 C-46.99626662 220.87916184 -52.87343216 219.81882483 -59 218 C-60.794375 217.50693359 -60.794375 217.50693359 -62.625 217.00390625 C-90.34698603 208.65843337 -114.18504646 189.41037032 -128.2265625 164.078125 C-142.55873455 137.07916214 -146.09883768 106.63725945 -137.96875 77.10546875 C-128.68443488 47.15100613 -108.0829747 22.73177035 -80.40625 8.05859375 C-56.44799375 -4.06520984 -25.84287049 -7.67210218 0 0 Z M-105.22265625 32.16015625 C-113.83425791 40.96554923 -120.35536436 50.14103727 -126 61 C-126.47179687 61.87914062 -126.94359375 62.75828125 -127.4296875 63.6640625 C-139.32822366 87.53503876 -140.26453769 116.93256116 -132.33447266 142.11328125 C-130.81808765 146.53472938 -128.98701791 150.76678794 -127 155 C-126.48695312 156.09570312 -125.97390625 157.19140625 -125.4453125 158.3203125 C-112.41552238 184.19286226 -89.37553582 202.71774142 -62.125 211.875 C-34.66848298 220.38024124 -5.77771258 217.84269771 20.01367188 205.04785156 C40.5457786 194.21650913 56.34116001 177.50512267 67 157 C67.70769531 155.68128906 67.70769531 155.68128906 68.4296875 154.3359375 C80.32822366 130.46496124 81.26453769 101.06743884 73.33447266 75.88671875 C71.81808765 71.46527062 69.98701791 67.23321206 68 63 C67.48695313 61.90429688 66.97390625 60.80859375 66.4453125 59.6796875 C53.41552238 33.80713774 30.37553582 15.28225858 3.125 6.125 C-35.09485387 -5.71441419 -76.52785436 4.20124347 -105.22265625 32.16015625 Z " fill="#919191" transform="translate(144,3)"/>
<path d="M0 0 C3.8127539 0 5.10318748 1.09440556 7.9375 3.6875 C12.25679489 9.0949463 14.51852702 15.60811596 17 22 C17.41765625 23.04800781 17.8353125 24.09601563 18.265625 25.17578125 C19.98930758 29.66099755 21.22499952 33.1452026 21 38 C19.1875 37.9375 19.1875 37.9375 17 37 C15.93923394 34.69365661 14.93495173 32.36015036 14 30 C12.87980469 30.66128906 11.75960937 31.32257813 10.60546875 32.00390625 C9.13312185 32.85730477 7.66044852 33.71014028 6.1875 34.5625 C5.08051758 35.21895508 5.08051758 35.21895508 3.95117188 35.88867188 C2.88286133 36.50258789 2.88286133 36.50258789 1.79296875 37.12890625 C1.1383667 37.51119385 0.48376465 37.89348145 -0.19067383 38.28735352 C-2 39 -2 39 -5 38 C-5 35.36 -5 32.72 -5 30 C-6.36125 29.9071875 -6.36125 29.9071875 -7.75 29.8125 C-11 29 -11 29 -13.375 26.9375 C-15.15997207 23.71081971 -15.82800947 21.59019299 -15.6484375 17.9296875 C-14.54369072 14.64206755 -12.13657827 13.52747108 -9.1796875 11.96484375 C-6.49869336 10.77809545 -3.82765984 9.77760645 -1 9 C-1.020625 7.700625 -1.04125 6.40125 -1.0625 5.0625 C-1.08399454 3.70834367 -1.07148199 2.35243917 -1 1 C-0.67 0.67 -0.34 0.34 0 0 Z " fill="#F1FAFD" transform="translate(112,109)"/>
<path d="M0 0 C0.78375 0.04125 1.5675 0.0825 2.375 0.125 C2.890625 1.259375 3.40625 2.39375 3.9375 3.5625 C4.96091323 5.5284043 4.96091323 5.5284043 6.375 7.125 C9.93152459 8.02637027 9.93152459 8.02637027 13.375 8.125 C14.035 8.785 14.695 9.445 15.375 10.125 C15.25 12.5625 15.25 12.5625 14.375 15.125 C12.3125 16.9375 12.3125 16.9375 10.375 18.125 C10.519375 18.846875 10.66375 19.56875 10.8125 20.3125 C10.998125 21.240625 11.18375 22.16875 11.375 23.125 C11.601875 24.011875 11.82875 24.89875 12.0625 25.8125 C12.165625 26.575625 12.26875 27.33875 12.375 28.125 C10.375 30.125 10.375 30.125 8 30.4375 C5.375 30.125 5.375 30.125 3.3125 28.5625 C1.50646012 26.8879822 1.50646012 26.8879822 -0.625 27.3125 C-2.65073528 28.09061521 -2.65073528 28.09061521 -4.5625 29.1875 C-7.04440633 30.31563924 -8.92902539 30.27477637 -11.625 30.125 C-13.2692351 25.19229471 -11.81115592 22.58475807 -9.625 18.125 C-10.553125 17.691875 -10.553125 17.691875 -11.5 17.25 C-13.625 16.125 -13.625 16.125 -15.625 14.125 C-15.06944444 9.56944444 -15.06944444 9.56944444 -13.625 8.125 C-11.29202567 8.08407063 -8.95794775 8.08258277 -6.625 8.125 C-6.33625 7.17625 -6.0475 6.2275 -5.75 5.25 C-3.92732558 0.1870155 -3.92732558 0.1870155 0 0 Z " fill="#F2FAFD" transform="translate(114.625,76.875)"/>
<path d="M0 0 C0.66 0 1.32 0 2 0 C3.1560727 2.2034806 4.29984721 4.41203156 5.4375 6.625 C5.92573242 7.55119141 5.92573242 7.55119141 6.42382812 8.49609375 C8.38259628 12.33285611 9.53221258 15.71743908 10 20 C8.04480616 21.17192047 6.0857461 22.3373929 4.125 23.5 C3.03445312 24.1496875 1.94390625 24.799375 0.8203125 25.46875 C-2 27 -2 27 -4 27 C-4 24.69 -4 22.38 -4 20 C-5.093125 20.04125 -6.18625 20.0825 -7.3125 20.125 C-11 20 -11 20 -14 18 C-14.1875 14.875 -14.1875 14.875 -14 12 C-13.07316406 11.55269531 -12.14632812 11.10539062 -11.19140625 10.64453125 C-9.98129996 10.03478777 -8.77168986 9.42405885 -7.5625 8.8125 C-6.95083984 8.52052734 -6.33917969 8.22855469 -5.70898438 7.92773438 C-2.65468078 6.35839606 -1.19675429 5.59195175 -0.08984375 2.26171875 C-0.04537109 1.14216797 -0.04537109 1.14216797 0 0 Z " fill="#25B0E9" transform="translate(115,115)"/>
<path d="M0 0 C1.8125 0.1875 1.8125 0.1875 4 1 C7 5.17857143 7 5.17857143 7 8 C8.11375 7.95875 9.2275 7.9175 10.375 7.875 C14 8 14 8 16 10 C15.76236269 14.39629018 13.85856441 16.77258856 11 20 C11.350625 20.721875 11.70125 21.44375 12.0625 22.1875 C13.10409017 25.3122705 12.89096572 26.88161996 12 30 C10.375 30.6875 10.375 30.6875 8 31 C5.97481509 30.0520411 3.97522846 29.04808041 2 28 C-0.73572585 27.30092586 -0.73572585 27.30092586 -3 27 C-2.67 25.68 -2.34 24.36 -2 23 C-0.3125 22.3125 -0.3125 22.3125 2 22 C4.75 23.4375 4.75 23.4375 7 25 C6.773125 23.741875 6.54625 22.48375 6.3125 21.1875 C5.81482903 17.28216529 5.81482903 17.28216529 7.3125 15 C9 14 9 14 11 14 C11 13.34 11 12.68 11 12 C8.69 12 6.38 12 4 12 C3.32332002 10.75539217 2.65905281 9.50403104 2 8.25 C1.62875 7.55390625 1.2575 6.8578125 0.875 6.140625 C0 4 0 4 0 0 Z " fill="#EFF9FD" transform="translate(134,81)"/>
<path d="M0 0 C2.0625 0.4375 2.0625 0.4375 4 1 C3.731875 1.515625 3.46375 2.03125 3.1875 2.5625 C1.67650593 5.66401415 0.34427274 8.82262806 -1 12 C-3.31 12 -5.62 12 -8 12 C-8 12.66 -8 13.32 -8 14 C-7.360625 14.309375 -6.72125 14.61875 -6.0625 14.9375 C-4 16 -4 16 -3 17 C-3.17635452 19.69082872 -3.61835921 22.32851446 -4 25 C-3.2575 24.484375 -2.515 23.96875 -1.75 23.4375 C1 22 1 22 3.3125 22.3125 C3.869375 22.539375 4.42625 22.76625 5 23 C5.33 24.32 5.66 25.64 6 27 C4.9275 27.28875 3.855 27.5775 2.75 27.875 C-0.82387571 28.80789174 -0.82387571 28.80789174 -3.1875 30.1875 C-5.49823506 31.22334675 -6.66370893 30.83438967 -9 30 C-10.26264601 25.70700357 -9.62950412 23.12168689 -8 19 C-9.2684375 17.9171875 -9.2684375 17.9171875 -10.5625 16.8125 C-13 14 -13 14 -12.875 11.25 C-12 9 -12 9 -11 8 C-9.88625 7.938125 -8.7725 7.87625 -7.625 7.8125 C-6.42875 7.544375 -5.2325 7.27625 -4 7 C-2.04901119 4.09925069 -2.04901119 4.09925069 -1 1 C-0.67 0.67 -0.34 0.34 0 0 Z " fill="#EFF9FD" transform="translate(92,81)"/>
<path d="M0 0 C2.15377564 2.62198774 3.40072174 4.64404172 4 8 C6.31 8 8.62 8 11 8 C10.154375 8.721875 9.30875 9.44375 8.4375 10.1875 C5.68973514 12.70356788 5.68973514 12.70356788 6.125 15.5625 C6.41375 16.366875 6.7025 17.17125 7 18 C7.185625 18.763125 7.37125 19.52625 7.5625 20.3125 C7.706875 20.869375 7.85125 21.42625 8 22 C7.113125 21.484375 6.22625 20.96875 5.3125 20.4375 C1.71080089 18.8744985 0.63367097 18.85252496 -3 20 C-3.763125 20.185625 -4.52625 20.37125 -5.3125 20.5625 C-5.869375 20.706875 -6.42625 20.85125 -7 21 C-6.7525 19.783125 -6.505 18.56625 -6.25 17.3125 C-5.77449455 13.74303912 -5.86144326 13.21453947 -7.9375 10 C-8.618125 9.34 -9.29875 8.68 -10 8 C-9.0925 7.979375 -8.185 7.95875 -7.25 7.9375 C-3.62276269 6.89118154 -3.36742851 6.54629332 -1.625 3.4375 C-1.08875 2.303125 -0.5525 1.16875 0 0 Z " fill="#29B1E9" transform="translate(114,81)"/>
</svg>
