<?xml version="1.0" encoding="UTF-8"?>
<svg version="1.1" xmlns="http://www.w3.org/2000/svg" width="225" height="224">
<path d="M0 0 C18.24202755 14.64408104 30.72094856 36.38802088 33.56542969 59.74121094 C35.1597185 87.56141055 29.94542896 111.69507655 11.00292969 133.05371094 C9.5297083 134.62181777 8.05105052 136.18484626 6.56542969 137.74121094 C6.02660156 138.35480469 5.48777344 138.96839844 4.93261719 139.60058594 C-9.96256487 155.91792105 -33.93285821 163.74102001 -55.43457031 164.74121094 C-80.66813318 165.24919264 -104.46578181 156.11017662 -122.86572266 138.82739258 C-140.21081109 121.91302111 -150.22792795 99.770852 -150.90698242 75.49511719 C-151.13695009 48.37114298 -141.97223681 24.70744501 -122.87207031 5.11230469 C-88.87635952 -27.25279788 -36.54798763 -28.66633464 0 0 Z " fill="#1FAEE9" transform="translate(174.4345703125,39.2587890625)"/>
<path d="M0 0 C0.98870087 0.00081573 0.98870087 0.00081573 1.99737549 0.00164795 C12.97851814 0.04318906 22.9941372 0.99005212 33.4375 4.375 C34.1190918 4.58930664 34.80068359 4.80361328 35.50292969 5.02441406 C63.08749868 13.90889549 86.3235514 33.11503355 100.1875 58.5625 C100.52773193 59.17150146 100.86796387 59.78050293 101.21850586 60.40795898 C102.40915146 62.69053048 103.43023338 65.00503478 104.4375 67.375 C105.21625488 69.16284912 105.21625488 69.16284912 106.01074219 70.98681641 C111.01028302 83.4417301 111.36273001 95.51610885 111.21972656 108.81542969 C111.18753892 112.37070098 111.21958525 115.92142798 111.2578125 119.4765625 C111.31199267 148.9671346 99.80765533 172.97092661 78.98095703 193.89306641 C65.18535596 207.13876374 48.69802018 216.00820494 30.4375 221.375 C29.31988281 221.7153125 28.20226562 222.055625 27.05078125 222.40625 C9.75825834 226.7444439 -11.47703827 226.44724645 -28.5625 221.375 C-30.356875 220.88193359 -30.356875 220.88193359 -32.1875 220.37890625 C-59.47809257 212.16330078 -83.75776635 193.10763287 -97.78173828 168.21044922 C-111.94115375 141.83196168 -116.38962398 110.29065749 -107.96044922 81.3046875 C-99.19289971 52.40789512 -80.2349457 27.63422493 -53.45458984 13.2421875 C-36.27201013 4.36173971 -19.37671882 -0.02708653 0 0 Z M-53.5625 19.375 C-54.56023438 19.93058594 -55.55796875 20.48617188 -56.5859375 21.05859375 C-81.53059086 35.96105858 -97.79481963 61.2673881 -104.8359375 88.97265625 C-110.67021442 116.2933831 -105.83844607 144.43726151 -91.625 168.3125 C-75.24069212 193.57948821 -52.12680626 210.95318112 -22.73046875 217.9140625 C4.60887989 223.72675284 33.98093935 219.15495282 57.6875 204.125 C83.92078378 186.7020413 99.88359764 162.31142304 106.98364258 131.64331055 C112.6712384 103.21756939 104.93302809 74.37946082 89.125 50.625 C72.16169088 27.16633833 48.06413716 10.96992397 19.33984375 5.90625 C-6.87876782 2.33694953 -30.4523449 6.43868462 -53.5625 19.375 Z " fill="#919191" transform="translate(114.5625,-0.375)"/>
<path d="M0 0 C0.87430664 -0.00630432 1.74861328 -0.01260864 2.64941406 -0.019104 C4.06818848 -0.01303131 4.06818848 -0.01303131 5.515625 -0.00683594 C6.48467773 -0.00874939 7.45373047 -0.01066284 8.45214844 -0.01263428 C10.50325785 -0.01399673 12.55437586 -0.01029612 14.60546875 -0.00195312 C17.75280039 0.00874547 20.8995612 -0.00184647 24.046875 -0.01464844 C26.0364596 -0.01332685 28.02604384 -0.01076448 30.015625 -0.00683594 C30.96147461 -0.0108844 31.90732422 -0.01493286 32.88183594 -0.019104 C33.75614258 -0.01279968 34.63044922 -0.00649536 35.53125 0 C36.68802246 0.00238678 36.68802246 0.00238678 37.86816406 0.00482178 C39.765625 0.25878906 39.765625 0.25878906 41.765625 2.25878906 C42.00854492 4.3059082 42.00854492 4.3059082 41.99609375 6.79394531 C41.99416016 7.68533203 41.99222656 8.57671875 41.99023438 9.49511719 C41.97186523 10.89407227 41.97186523 10.89407227 41.953125 12.32128906 C41.95248047 13.25779297 41.95183594 14.19429687 41.95117188 15.15917969 C41.90581724 22.11859682 41.90581724 22.11859682 40.765625 23.25878906 C39.36437163 23.36201104 37.9580123 23.39728336 36.55297852 23.40405273 C35.21137413 23.41362251 35.21137413 23.41362251 33.84266663 23.42338562 C32.86978195 23.42449844 31.89689728 23.42561127 30.89453125 23.42675781 C29.40553566 23.43175041 29.40553566 23.43175041 27.88645935 23.43684387 C25.7823025 23.44191747 23.67813757 23.44425207 21.57397461 23.4440918 C18.34540617 23.44627736 15.11717973 23.46442606 11.88867188 23.48339844 C9.84895951 23.48633238 7.80924551 23.48831717 5.76953125 23.48925781 C4.79867081 23.49644333 3.82781036 23.50362885 2.82752991 23.5110321 C1.92997482 23.50795547 1.03241974 23.50487885 0.10766602 23.50170898 C-0.68429672 23.503134 -1.47625946 23.50455902 -2.29222107 23.50602722 C-4.234375 23.25878906 -4.234375 23.25878906 -6.234375 21.25878906 C-6.49316406 19.31933594 -6.49316406 19.31933594 -6.5 16.97753906 C-6.50257812 16.13578125 -6.50515625 15.29402344 -6.5078125 14.42675781 C-6.49621094 13.10611328 -6.49621094 13.10611328 -6.484375 11.75878906 C-6.49210937 10.87835938 -6.49984375 9.99792969 -6.5078125 9.09082031 C-6.50523438 8.2490625 -6.50265625 7.40730469 -6.5 6.54003906 C-6.49774414 5.76724609 -6.49548828 4.99445313 -6.49316406 4.19824219 C-5.95051752 0.1314647 -3.51534877 0.00725325 0 0 Z M-2.234375 4.25878906 C-2.234375 9.20878906 -2.234375 14.15878906 -2.234375 19.25878906 C11.295625 19.25878906 24.825625 19.25878906 38.765625 19.25878906 C38.765625 14.30878906 38.765625 9.35878906 38.765625 4.25878906 C25.235625 4.25878906 11.705625 4.25878906 -2.234375 4.25878906 Z " fill="#F4FBFD" transform="translate(106.234375,115.7412109375)"/>
<path d="M0 0 C0.79196274 0.00142502 1.58392548 0.00285004 2.39988708 0.00431824 C3.74621971 -0.00029671 3.74621971 -0.00029671 5.11975098 -0.00500488 C6.09061142 0.00218063 7.06147186 0.00936615 8.06175232 0.01676941 C9.05537277 0.01722763 10.04899323 0.01768585 11.07272339 0.01815796 C13.17511691 0.02118206 15.27750816 0.02907306 17.37986755 0.04142761 C20.61049776 0.05968251 23.84084156 0.06193736 27.07151794 0.06169128 C29.1099319 0.06660636 31.1483439 0.07243463 33.18675232 0.07926941 C34.15963699 0.08038223 35.13252167 0.08149506 36.1348877 0.0826416 C37.02929062 0.08902145 37.92369354 0.09540131 38.84519958 0.10197449 C39.63636673 0.10578629 40.42753387 0.10959808 41.24267578 0.11352539 C43.05784607 0.24723816 43.05784607 0.24723816 44.05784607 1.24723816 C44.30820581 4.5524075 44.24306559 7.87119857 44.24534607 11.18473816 C44.25759216 12.11737488 44.26983826 13.0500116 44.28245544 14.01091003 C44.28438904 14.90229675 44.28632263 15.79368347 44.28831482 16.71208191 C44.29242371 17.53313416 44.29653259 18.3541864 44.30076599 19.20011902 C44.05784607 21.24723816 44.05784607 21.24723816 42.05784607 23.24723816 C40.16038513 23.50120544 40.16038513 23.50120544 37.82347107 23.50602722 C36.51201111 23.5154837 36.51201111 23.5154837 35.17405701 23.52513123 C33.75528259 23.51905853 33.75528259 23.51905853 32.30784607 23.51286316 C31.33879333 23.51477661 30.3697406 23.51669006 29.37132263 23.5186615 C27.32021322 23.52002395 25.26909521 23.51632334 23.21800232 23.50798035 C20.07067068 23.49728175 16.92390987 23.50787369 13.77659607 23.52067566 C11.78701147 23.51935408 9.79742723 23.51679171 7.80784607 23.51286316 C6.86199646 23.51691162 5.91614685 23.52096008 4.94163513 23.52513123 C4.06732849 23.5188269 3.19302185 23.51252258 2.29222107 23.50602722 C1.52103943 23.50443604 0.74985779 23.50284485 -0.04469299 23.50120544 C-1.94215393 23.24723816 -1.94215393 23.24723816 -3.94215393 21.24723816 C-4.20094299 19.30778503 -4.20094299 19.30778503 -4.20777893 16.96598816 C-4.21035706 16.12423035 -4.21293518 15.28247253 -4.21559143 14.41520691 C-4.20398987 13.09456238 -4.20398987 13.09456238 -4.19215393 11.74723816 C-4.19988831 10.86680847 -4.20762268 9.98637878 -4.21559143 9.07926941 C-4.21301331 8.2375116 -4.21043518 7.39575378 -4.20777893 6.52848816 C-4.20552307 5.75569519 -4.20326721 4.98290222 -4.20094299 4.18669128 C-3.82770539 1.38952195 -2.80113277 0.35658703 0 0 Z M0.05784607 4.24723816 C0.05784607 9.19723816 0.05784607 14.14723816 0.05784607 19.24723816 C13.58784607 19.24723816 27.11784607 19.24723816 41.05784607 19.24723816 C41.05784607 14.29723816 41.05784607 9.34723816 41.05784607 4.24723816 C27.52784607 4.24723816 13.99784607 4.24723816 0.05784607 4.24723816 Z " fill="#F4FBFE" transform="translate(103.94215393066406,84.75276184082031)"/>
<path d="M0 0 C0.99 0 1.98 0 3 0 C3 2.31 3 4.62 3 7 C3.763125 6.484375 4.52625 5.96875 5.3125 5.4375 C6.199375 4.963125 7.08625 4.48875 8 4 C8.99 4.33 9.98 4.66 11 5 C11 5.99 11 6.98 11 8 C9 9.6875 9 9.6875 7 11 C8.32 11.99 9.64 12.98 11 14 C10.67 14.99 10.34 15.98 10 17 C7.83125748 16.49396008 6.00032373 16.00016187 4 15 C3.67 16.98 3.34 18.96 3 21 C1.68 20.67 0.36 20.34 -1 20 C-1 18.35 -1 16.7 -1 15 C-1.598125 15.33 -2.19625 15.66 -2.8125 16 C-5 17 -5 17 -8 17 C-8 15.68 -8 14.36 -8 13 C-6.68 12.34 -5.36 11.68 -4 11 C-5.32 10.01 -6.64 9.02 -8 8 C-7.67 6.68 -7.34 5.36 -7 4 C-5.02 4.66 -3.04 5.32 -1 6 C-1.020625 5.195625 -1.04125 4.39125 -1.0625 3.5625 C-1 1 -1 1 0 0 Z " fill="#ECF8FD" transform="translate(84,117)"/>
<path d="M0 0 C0.99 0 1.98 0 3 0 C3 2.31 3 4.62 3 7 C3.86625 6.2265625 3.86625 6.2265625 4.75 5.4375 C7 4 7 4 9.25 4.3125 C9.8275 4.539375 10.405 4.76625 11 5 C10.0022242 7.99332739 9.2477975 8.94766315 7 11 C8.32 11.66 9.64 12.32 11 13 C10.67 14.32 10.34 15.64 10 17 C5.25 15.125 5.25 15.125 3 14 C3 16.31 3 18.62 3 21 C1.68 20.67 0.36 20.34 -1 20 C-1.33 18.35 -1.66 16.7 -2 15 C-3.65 15.66 -5.3 16.32 -7 17 C-7.33 15.68 -7.66 14.36 -8 13 C-6.68 12.01 -5.36 11.02 -4 10 C-5.32 9.34 -6.64 8.68 -8 8 C-8 6.68 -8 5.36 -8 4 C-3.25 4.875 -3.25 4.875 -1 6 C-1.020625 5.195625 -1.04125 4.39125 -1.0625 3.5625 C-1 1 -1 1 0 0 Z " fill="#EDF8FD" transform="translate(84,86)"/>
</svg>
