<?xml version="1.0" encoding="UTF-8"?>
<svg version="1.1" xmlns="http://www.w3.org/2000/svg" width="225" height="224">
<path d="M0 0 C18.24202755 14.64408104 30.72094856 36.38802088 33.56542969 59.74121094 C35.1597185 87.56141055 29.94542896 111.69507655 11.00292969 133.05371094 C9.5297083 134.62181777 8.05105052 136.18484626 6.56542969 137.74121094 C6.02660156 138.35480469 5.48777344 138.96839844 4.93261719 139.60058594 C-9.96256487 155.91792105 -33.93285821 163.74102001 -55.43457031 164.74121094 C-80.66813318 165.24919264 -104.46578181 156.11017662 -122.86572266 138.82739258 C-140.21081109 121.91302111 -150.22792795 99.770852 -150.90698242 75.49511719 C-151.13695009 48.37114298 -141.97223681 24.70744501 -122.87207031 5.11230469 C-88.87635952 -27.25279788 -36.54798763 -28.66633464 0 0 Z " fill="#1FAEE8" transform="translate(171.4345703125,39.2587890625)"/>
<path d="M0 0 C0.98870087 0.00081573 0.98870087 0.00081573 1.99737549 0.00164795 C12.97851814 0.04318906 22.9941372 0.99005212 33.4375 4.375 C34.1190918 4.58930664 34.80068359 4.80361328 35.50292969 5.02441406 C63.9741159 14.19445857 87.48247377 34.23702295 101.30859375 60.70898438 C106.67367609 71.4873962 110.80485313 83.41639176 112.4375 95.375 C112.54707031 96.14328125 112.65664062 96.9115625 112.76953125 97.703125 C116.36021388 127.38610143 108.27326763 157.43845491 90.4375 181.375 C74.71035871 200.92882421 54.46069467 214.31454602 30.4375 221.375 C29.31988281 221.7153125 28.20226562 222.055625 27.05078125 222.40625 C9.75825834 226.7444439 -11.47703827 226.44724645 -28.5625 221.375 C-30.356875 220.88193359 -30.356875 220.88193359 -32.1875 220.37890625 C-59.47809257 212.16330078 -83.75776635 193.10763287 -97.78173828 168.21044922 C-111.94115375 141.83196168 -116.38962398 110.29065749 -107.96044922 81.3046875 C-99.19289971 52.40789512 -80.2349457 27.63422493 -53.45458984 13.2421875 C-36.27201013 4.36173971 -19.37671882 -0.02708653 0 0 Z M-53.5625 19.375 C-54.56023438 19.93058594 -55.55796875 20.48617188 -56.5859375 21.05859375 C-81.53059086 35.96105858 -97.79481963 61.2673881 -104.8359375 88.97265625 C-110.67021442 116.2933831 -105.83844607 144.43726151 -91.625 168.3125 C-75.24069212 193.57948821 -52.12680626 210.95318112 -22.73046875 217.9140625 C4.60887989 223.72675284 33.98093935 219.15495282 57.6875 204.125 C83.92078378 186.7020413 99.88359764 162.31142304 106.98364258 131.64331055 C112.6712384 103.21756939 104.93302809 74.37946082 89.125 50.625 C72.16169088 27.16633833 48.06413716 10.96992397 19.33984375 5.90625 C-6.87876782 2.33694953 -30.4523449 6.43868462 -53.5625 19.375 Z " fill="#919191" transform="translate(111.5625,-0.375)"/>
<path d="M0 0 C0.95108643 -0.00622879 1.90217285 -0.01245758 2.88208008 -0.01887512 C3.90712646 -0.00966537 4.93217285 -0.00045563 5.98828125 0.0090332 C7.04233154 0.0085347 8.09638184 0.00803619 9.18237305 0.00752258 C11.41164026 0.00986382 13.64091008 0.01959519 15.87011719 0.03613281 C19.28734918 0.05972173 22.70380106 0.05669438 26.12109375 0.05004883 C28.28516091 0.0556256 30.44922478 0.06273547 32.61328125 0.0715332 C33.63832764 0.0706218 34.66337402 0.06971039 35.71948242 0.06877136 C37.14611206 0.08306938 37.14611206 0.08306938 38.6015625 0.09765625 C39.43856689 0.10226364 40.27557129 0.10687103 41.13793945 0.11161804 C43.30078125 0.37231445 43.30078125 0.37231445 46.30078125 2.37231445 C46.68173218 4.41490173 46.68173218 4.41490173 46.68896484 6.95800781 C46.69842133 7.90916977 46.70787781 8.86033173 46.71762085 9.84031677 C46.71154816 10.87052444 46.70547546 11.90073212 46.69921875 12.9621582 C46.70208893 14.01762344 46.70495911 15.07308868 46.70791626 16.16053772 C46.70996046 18.39576757 46.70440585 20.63101517 46.69189453 22.86621094 C46.67586236 26.29248015 46.6917236 29.71756677 46.7109375 33.14379883 C46.70895482 35.31242123 46.70511063 37.4810429 46.69921875 39.6496582 C46.70832779 41.19193336 46.70832779 41.19193336 46.71762085 42.7653656 C46.70816437 43.71967972 46.69870789 44.67399384 46.68896484 45.65722656 C46.68657806 46.49724716 46.68419128 47.33726776 46.68173218 48.20274353 C46.30078125 50.37231445 46.30078125 50.37231445 45.06349182 52.14175415 C42.80787028 53.71641897 41.44951884 53.75822785 38.70922852 53.77636719 C37.78139053 53.78905136 36.85355255 53.80173553 35.89759827 53.81480408 C34.39754494 53.81040062 34.39754494 53.81040062 32.8671875 53.8059082 C31.32296364 53.81377098 31.32296364 53.81377098 29.74754333 53.8217926 C27.56957908 53.82821819 25.39158015 53.8268689 23.21362305 53.81835938 C19.879417 53.80985561 16.54692705 53.83859453 13.21289062 53.87036133 C11.09765676 53.87197354 8.98241987 53.87139543 6.8671875 53.8684082 C5.86917618 53.87964218 4.87116486 53.89087616 3.84291077 53.90245056 C-0.03759702 53.86334934 -2.86566584 53.81114871 -6.32861328 51.98803711 C-8.52822068 47.79021137 -8.24903338 43.69254767 -8.1953125 39.0246582 C-8.19676773 38.01641495 -8.19822296 37.00817169 -8.19972229 35.96937561 C-8.19806373 33.84023139 -8.18650736 31.71107514 -8.16577148 29.58203125 C-8.13679365 26.31825022 -8.14516837 23.05609089 -8.15820312 19.79223633 C-8.15196644 17.72386904 -8.14357605 15.65550689 -8.1328125 13.5871582 C-8.13574814 12.60899643 -8.13868378 11.63083466 -8.14170837 10.62303162 C-8.1290242 9.71521439 -8.11634003 8.80739716 -8.10327148 7.87207031 C-8.0978685 7.07361191 -8.09246552 6.2751535 -8.0868988 5.45249939 C-7.2116432 0.75611767 -4.37986361 -0.00329365 0 0 Z " fill="#24B0E9" transform="translate(92.69921875,84.627685546875)"/>
<path d="M0 0 C0.95108643 -0.00622879 1.90217285 -0.01245758 2.88208008 -0.01887512 C3.90712646 -0.00966537 4.93217285 -0.00045563 5.98828125 0.0090332 C7.04233154 0.0085347 8.09638184 0.00803619 9.18237305 0.00752258 C11.41164026 0.00986382 13.64091008 0.01959519 15.87011719 0.03613281 C19.28734918 0.05972173 22.70380106 0.05669438 26.12109375 0.05004883 C28.28516091 0.0556256 30.44922478 0.06273547 32.61328125 0.0715332 C33.63832764 0.0706218 34.66337402 0.06971039 35.71948242 0.06877136 C37.14611206 0.08306938 37.14611206 0.08306938 38.6015625 0.09765625 C39.43856689 0.10226364 40.27557129 0.10687103 41.13793945 0.11161804 C43.30078125 0.37231445 43.30078125 0.37231445 46.30078125 2.37231445 C46.68173218 4.41490173 46.68173218 4.41490173 46.68896484 6.95800781 C46.69842133 7.90916977 46.70787781 8.86033173 46.71762085 9.84031677 C46.71154816 10.87052444 46.70547546 11.90073212 46.69921875 12.9621582 C46.70208893 14.01762344 46.70495911 15.07308868 46.70791626 16.16053772 C46.70996046 18.39576757 46.70440585 20.63101517 46.69189453 22.86621094 C46.67586236 26.29248015 46.6917236 29.71756677 46.7109375 33.14379883 C46.70895482 35.31242123 46.70511063 37.4810429 46.69921875 39.6496582 C46.70832779 41.19193336 46.70832779 41.19193336 46.71762085 42.7653656 C46.70816437 43.71967972 46.69870789 44.67399384 46.68896484 45.65722656 C46.68657806 46.49724716 46.68419128 47.33726776 46.68173218 48.20274353 C46.30078125 50.37231445 46.30078125 50.37231445 45.06349182 52.14175415 C42.80787028 53.71641897 41.44951884 53.75822785 38.70922852 53.77636719 C37.78139053 53.78905136 36.85355255 53.80173553 35.89759827 53.81480408 C34.39754494 53.81040062 34.39754494 53.81040062 32.8671875 53.8059082 C31.32296364 53.81377098 31.32296364 53.81377098 29.74754333 53.8217926 C27.56957908 53.82821819 25.39158015 53.8268689 23.21362305 53.81835938 C19.879417 53.80985561 16.54692705 53.83859453 13.21289062 53.87036133 C11.09765676 53.87197354 8.98241987 53.87139543 6.8671875 53.8684082 C5.86917618 53.87964218 4.87116486 53.89087616 3.84291077 53.90245056 C-0.03759702 53.86334934 -2.86566584 53.81114871 -6.32861328 51.98803711 C-8.52822068 47.79021137 -8.24903338 43.69254767 -8.1953125 39.0246582 C-8.19676773 38.01641495 -8.19822296 37.00817169 -8.19972229 35.96937561 C-8.19806373 33.84023139 -8.18650736 31.71107514 -8.16577148 29.58203125 C-8.13679365 26.31825022 -8.14516837 23.05609089 -8.15820312 19.79223633 C-8.15196644 17.72386904 -8.14357605 15.65550689 -8.1328125 13.5871582 C-8.13574814 12.60899643 -8.13868378 11.63083466 -8.14170837 10.62303162 C-8.1290242 9.71521439 -8.11634003 8.80739716 -8.10327148 7.87207031 C-8.0978685 7.07361191 -8.09246552 6.2751535 -8.0868988 5.45249939 C-7.2116432 0.75611767 -4.37986361 -0.00329365 0 0 Z M-3.69921875 4.37231445 C-3.79209135 5.78456491 -3.81668647 7.2014038 -3.81274414 8.61669922 C-3.81266861 9.51755753 -3.81259308 10.41841583 -3.81251526 11.34657288 C-3.80735397 12.32573166 -3.80219269 13.30489044 -3.796875 14.3137207 C-3.79546005 15.31112778 -3.7940451 16.30853485 -3.79258728 17.33616638 C-3.78696989 20.53574569 -3.77441446 23.73525614 -3.76171875 26.93481445 C-3.75670599 29.0982249 -3.7521427 31.26163645 -3.74804688 33.42504883 C-3.73699482 38.74082771 -3.72023979 44.05656616 -3.69921875 49.37231445 C2.83356911 49.39758448 9.36634446 49.41514737 15.89916992 49.42724609 C18.12345857 49.43228762 20.34774388 49.43912068 22.57202148 49.44775391 C25.76156434 49.45982744 28.95106354 49.46554441 32.140625 49.4699707 C33.14165756 49.47513199 34.14269012 49.48029327 35.17405701 49.48561096 C36.5553756 49.48572426 36.5553756 49.48572426 37.96459961 49.48583984 C39.18704628 49.48917076 39.18704628 49.48917076 40.43418884 49.49256897 C42.31555981 49.57759691 42.31555981 49.57759691 43.30078125 48.37231445 C43.39873436 46.99621563 43.42876213 45.61517563 43.43017578 44.2355957 C43.43490402 42.91918091 43.43490402 42.91918091 43.43972778 41.57617188 C43.43770355 40.62202393 43.43567932 39.66787598 43.43359375 38.68481445 C43.43455048 37.7119751 43.4355072 36.73913574 43.43649292 35.73681641 C43.43717483 33.67553645 43.43531978 31.61425437 43.43115234 29.55297852 C43.42580425 26.38593757 43.43109697 23.21903845 43.4375 20.05200195 C43.43683922 18.0546058 43.43555806 16.05720974 43.43359375 14.05981445 C43.43561798 13.1056665 43.43764221 12.15151855 43.43972778 11.16845703 C43.43657562 10.29084717 43.43342346 9.4132373 43.43017578 8.5090332 C43.42938019 7.73261475 43.42858459 6.95619629 43.42776489 6.15625 C43.49481667 4.34797784 43.49481667 4.34797784 42.30078125 3.37231445 C40.89402905 3.27426595 39.48242989 3.24433259 38.07226562 3.24291992 C37.17463501 3.23976776 36.27700439 3.2366156 35.35217285 3.23336792 C34.37615112 3.23539215 33.40012939 3.23741638 32.39453125 3.23950195 C31.39949585 3.23854523 30.40446045 3.2375885 29.37927246 3.23660278 C27.27091407 3.23592085 25.1625536 3.23777602 23.05419922 3.24194336 C19.81473098 3.24729142 16.5754014 3.24199878 13.3359375 3.2355957 C11.29296844 3.23625648 9.24999947 3.23753764 7.20703125 3.23950195 C5.74299866 3.23646561 5.74299866 3.23646561 4.24938965 3.23336792 C2.90294373 3.23809616 2.90294373 3.23809616 1.52929688 3.24291992 C0.33802185 3.24411331 0.33802185 3.24411331 -0.87731934 3.24533081 C-2.71911678 3.17346899 -2.71911678 3.17346899 -3.69921875 4.37231445 Z " fill="#E8F7FC" transform="translate(92.69921875,84.627685546875)"/>
<path d="M0 0 C6.27 0 12.54 0 19 0 C19 0.99 19 1.98 19 3 C12.73 3 6.46 3 0 3 C0 2.01 0 1.02 0 0 Z " fill="#EBF8FD" transform="translate(109,110)"/>
<path d="M0 0 C5.61 0 11.22 0 17 0 C17 0.99 17 1.98 17 3 C11.39 3 5.78 3 0 3 C0 2.01 0 1.02 0 0 Z " fill="#FFFFFF" transform="translate(110,122)"/>
<path d="M0 0 C5.61 0 11.22 0 17 0 C17 0.99 17 1.98 17 3 C11.39 3 5.78 3 0 3 C0 2.01 0 1.02 0 0 Z " fill="#F5FBFE" transform="translate(110,97)"/>
<path d="M0 0 C1.98 0.495 1.98 0.495 4 1 C3.67 2.32 3.34 3.64 3 5 C1.68 5 0.36 5 -1 5 C-0.67 3.35 -0.34 1.7 0 0 Z " fill="#E4F5FC" transform="translate(98,121)"/>
<path d="M0 0 C2.475 0.495 2.475 0.495 5 1 C4.67 2.32 4.34 3.64 4 5 C2.68 4.67 1.36 4.34 0 4 C0 2.68 0 1.36 0 0 Z " fill="#E3F4FC" transform="translate(97,109)"/>
<path d="M0 0 C1.98 0.495 1.98 0.495 4 1 C3.67 2.32 3.34 3.64 3 5 C1.68 5 0.36 5 -1 5 C-0.67 3.35 -0.34 1.7 0 0 Z " fill="#E1F4FC" transform="translate(98,96)"/>
</svg>
