<svg width="16" height="16" viewBox="0 0 16 16" fill="none" xmlns="http://www.w3.org/2000/svg">
<g clip-path="url(#clip0_1_5702)">
<path d="M8.94084 12.4136H4.83694C4.72828 12.4171 4.62002 12.3989 4.51861 12.3603C4.41721 12.3217 4.32471 12.2634 4.24664 12.1888C4.16856 12.1143 4.10649 12.025 4.06412 11.9264C4.02175 11.8277 3.99994 11.7217 4 11.6146V4.12721C4.00827 3.90895 4.10407 3.70284 4.26639 3.5541C4.42871 3.40536 4.64428 3.32614 4.8658 3.33382H8.9697C9.07595 3.33148 9.18159 3.35042 9.28019 3.3895C9.3788 3.42857 9.46833 3.48697 9.54335 3.56116C9.61837 3.63534 9.67731 3.72376 9.71662 3.82106C9.75592 3.91837 9.77477 4.02252 9.772 4.12721V11.6146C9.77165 11.7211 9.74975 11.8265 9.7076 11.9246C9.66545 12.0226 9.60389 12.1115 9.52651 12.1859C9.44914 12.2603 9.35749 12.3187 9.25694 12.3578C9.15638 12.3969 9.04892 12.4159 8.94084 12.4136ZM4.83694 3.88265C4.80349 3.88151 4.77014 3.88697 4.73886 3.89872C4.70759 3.91046 4.67901 3.92825 4.65481 3.95103C4.63061 3.97382 4.61127 4.00114 4.59795 4.0314C4.58462 4.06165 4.57757 4.09423 4.5772 4.12721V11.6146C4.5772 11.6802 4.60365 11.7431 4.65074 11.7895C4.69783 11.8359 4.76169 11.862 4.82828 11.862H8.94084C9.00991 11.8629 9.07674 11.8378 9.12769 11.7918C9.17864 11.7458 9.20987 11.6824 9.21501 11.6146V4.12721C9.20917 4.05983 9.17764 3.99714 9.12677 3.95176C9.07589 3.90638 9.00945 3.88169 8.94084 3.88265H4.83694Z" fill="#4C4C4C"/>
<path d="M11.6566 12.4136C11.5233 12.4147 11.391 12.3898 11.2674 12.3403C11.1439 12.2908 11.0315 12.2177 10.9368 12.1251C10.8421 12.0326 10.7669 11.9225 10.7156 11.8012C10.6643 11.6799 10.6379 11.5497 10.6379 11.4183V9.28557C10.6379 9.13474 10.5771 8.99008 10.4688 8.88342C10.3606 8.77676 10.2138 8.71684 10.0607 8.71684H9.64798C9.57143 8.71684 9.49803 8.68688 9.4439 8.63355C9.38978 8.58022 9.35938 8.5079 9.35938 8.43248C9.35938 8.35706 9.38978 8.28473 9.4439 8.2314C9.49803 8.17807 9.57143 8.14811 9.64798 8.14811H10.0607C10.3668 8.14811 10.6605 8.26795 10.877 8.48127C11.0935 8.69458 11.2151 8.9839 11.2151 9.28557V11.4183C11.2151 11.5314 11.2607 11.6399 11.3419 11.7199C11.4231 11.7999 11.5332 11.8449 11.648 11.8449C11.7628 11.8449 11.8729 11.7999 11.9541 11.7199C12.0353 11.6399 12.0809 11.5314 12.0809 11.4183V7.66469L11.1776 5.67413C11.1236 5.5632 11.0388 5.46961 10.9331 5.40418C10.8274 5.33876 10.705 5.30418 10.5802 5.30445H10.3695C10.2929 5.30445 10.2195 5.27449 10.1654 5.22116C10.1113 5.16783 10.0809 5.0955 10.0809 5.02008C10.0809 4.94467 10.1113 4.87234 10.1654 4.81901C10.2195 4.76568 10.2929 4.73572 10.3695 4.73572H10.5802C10.8201 4.7356 11.055 4.80403 11.2563 4.93273C11.4576 5.06143 11.6167 5.24487 11.7144 5.46085L12.6408 7.49691C12.6577 7.53353 12.6665 7.57327 12.6667 7.6135V11.4183C12.6667 11.6823 12.5603 11.9354 12.3709 12.1221C12.1815 12.3087 11.9245 12.4136 11.6566 12.4136Z" fill="#4C4C4C"/>
<path d="M8.47343 5.30442H5.58743C5.51089 5.30442 5.43748 5.28195 5.38336 5.24195C5.32923 5.20195 5.29883 5.14771 5.29883 5.09114C5.29883 5.03458 5.32923 4.98033 5.38336 4.94034C5.43748 4.90034 5.51089 4.87787 5.58743 4.87787H8.47343C8.54997 4.87787 8.62338 4.90034 8.6775 4.94034C8.73163 4.98033 8.76203 5.03458 8.76203 5.09114C8.76203 5.14771 8.73163 5.20195 8.6775 5.24195C8.62338 5.28195 8.54997 5.30442 8.47343 5.30442Z" fill="#4C4C4C"/>
<path d="M8.47343 6.15751H5.58743C5.51089 6.15751 5.43748 6.13504 5.38336 6.09504C5.32923 6.05504 5.29883 6.0008 5.29883 5.94423C5.29883 5.88767 5.32923 5.83342 5.38336 5.79342C5.43748 5.75343 5.51089 5.73096 5.58743 5.73096H8.47343C8.54997 5.73096 8.62338 5.75343 8.6775 5.79342C8.73163 5.83342 8.76203 5.88767 8.76203 5.94423C8.76203 6.0008 8.73163 6.05504 8.6775 6.09504C8.62338 6.13504 8.54997 6.15751 8.47343 6.15751Z" fill="#4C4C4C"/>
<path d="M10.3491 6.18026C10.2726 6.18026 10.1992 6.1503 10.1451 6.09697C10.091 6.04365 10.0605 5.97132 10.0605 5.8959V4.1897C10.0605 4.11428 10.091 4.04195 10.1451 3.98862C10.1992 3.93529 10.2726 3.90533 10.3491 3.90533C10.4257 3.90533 10.4991 3.93529 10.5532 3.98862C10.6073 4.04195 10.6377 4.11428 10.6377 4.1897V5.8959C10.6377 5.97132 10.6073 6.04365 10.5532 6.09697C10.4991 6.1503 10.4257 6.18026 10.3491 6.18026Z" fill="#4C4C4C"/>
</g>
<defs>
<clipPath id="clip0_1_5702">
<rect width="16" height="16" fill="white"/>
</clipPath>
</defs>
</svg>