<svg width="24" height="24" viewBox="0 0 24 24" fill="none" xmlns="http://www.w3.org/2000/svg">
<path d="M18 11.998H13V16.998C13 17.2633 12.8946 17.5176 12.7071 17.7052C12.5196 17.8927 12.2652 17.998 12 17.998C11.7348 17.998 11.4804 17.8927 11.2929 17.7052C11.1054 17.5176 11 17.2633 11 16.998V11.998H6C5.73478 11.998 5.48043 11.8927 5.29289 11.7052C5.10536 11.5176 5 11.2633 5 10.998C5 10.7328 5.10536 10.4785 5.29289 10.2909C5.48043 10.1034 5.73478 9.99805 6 9.99805H11V4.99805C11 4.73283 11.1054 4.47848 11.2929 4.29094C11.4804 4.1034 11.7348 3.99805 12 3.99805C12.2652 3.99805 12.5196 4.1034 12.7071 4.29094C12.8946 4.47848 13 4.73283 13 4.99805V9.99805H18C18.2652 9.99805 18.5196 10.1034 18.7071 10.2909C18.8946 10.4785 19 10.7328 19 10.998C19 11.2633 18.8946 11.5176 18.7071 11.7052C18.5196 11.8927 18.2652 11.998 18 11.998Z" fill="black"/>
</svg>
