<svg width="44" height="44" viewBox="0 0 44 44" fill="none" xmlns="http://www.w3.org/2000/svg">
<circle cx="22" cy="22" r="22" fill="#EBFAFF"/>
<path d="M21 19H23V17H21M22 30C17.59 30 14 26.41 14 22C14 17.59 17.59 14 22 14C26.41 14 30 17.59 30 22C30 26.41 26.41 30 22 30ZM22 12C20.6868 12 19.3864 12.2587 18.1732 12.7612C16.9599 13.2638 15.8575 14.0003 14.9289 14.9289C13.0536 16.8043 12 19.3478 12 22C12 24.6522 13.0536 27.1957 14.9289 29.0711C15.8575 29.9997 16.9599 30.7362 18.1732 31.2388C19.3864 31.7413 20.6868 32 22 32C24.6522 32 27.1957 30.9464 29.0711 29.0711C30.9464 27.1957 32 24.6522 32 22C32 20.6868 31.7413 19.3864 31.2388 18.1732C30.7362 16.9599 29.9997 15.8575 29.0711 14.9289C28.1425 14.0003 27.0401 13.2638 25.8268 12.7612C24.6136 12.2587 23.3132 12 22 12ZM21 27H23V21H21V27Z" fill="#1FAEE9"/>
</svg>
