<svg width="44" height="44" viewBox="0 0 44 44" fill="none" xmlns="http://www.w3.org/2000/svg">
<circle cx="22" cy="22" r="22" fill="#EBFAFF"/>
<path d="M17 14V12.5M27 14V12.5" stroke="#1FAEE9" stroke-width="1.5" stroke-linecap="round"/>
<path d="M19 24.5L20.5 23V27" stroke="#1FAEE9" stroke-width="1.5" stroke-linecap="round" stroke-linejoin="round"/>
<path d="M31.5 19H20.75M12 19H15.875M23 26V24C23 23.7348 23.1054 23.4804 23.2929 23.2929C23.4804 23.1054 23.7348 23 24 23C24.2652 23 24.5196 23.1054 24.7071 23.2929C24.8946 23.4804 25 23.7348 25 24V26C25 26.2652 24.8946 26.5196 24.7071 26.7071C24.5196 26.8946 24.2652 27 24 27C23.7348 27 23.4804 26.8946 23.2929 26.7071C23.1054 26.5196 23 26.2652 23 26Z" stroke="#1FAEE9" stroke-width="1.5" stroke-linecap="round"/>
<path d="M24 32H20C16.229 32 14.343 32 13.172 30.828C12 29.657 12 27.771 12 24V22C12 18.229 12 16.343 13.172 15.172C14.343 14 16.229 14 20 14H24C27.771 14 29.657 14 30.828 15.172C32 16.343 32 18.229 32 22V24C32 27.771 32 29.657 30.828 30.828C30.175 31.482 29.3 31.771 28 31.898" stroke="#1FAEE9" stroke-width="1.5" stroke-linecap="round"/>
</svg>
