<svg width="44" height="44" viewBox="0 0 44 44" fill="none" xmlns="http://www.w3.org/2000/svg">
<circle cx="22" cy="22" r="22" fill="#EBFAFF"/>
<path d="M19 24L25 18" stroke="#1FAEE9" stroke-width="1.5" stroke-linecap="round" stroke-linejoin="round"/>
<path d="M19.5 19C19.7761 19 20 18.7761 20 18.5C20 18.2239 19.7761 18 19.5 18C19.2239 18 19 18.2239 19 18.5C19 18.7761 19.2239 19 19.5 19Z" fill="#1FAEE9" stroke="#1FAEE9" stroke-width="1.5" stroke-linecap="round" stroke-linejoin="round"/>
<path d="M24.5 24C24.7761 24 25 23.7761 25 23.5C25 23.2239 24.7761 23 24.5 23C24.2239 23 24 23.2239 24 23.5C24 23.7761 24.2239 24 24.5 24Z" fill="#1FAEE9" stroke="#1FAEE9" stroke-width="1.5" stroke-linecap="round" stroke-linejoin="round"/>
<path d="M15 31V15C15 14.4696 15.2107 13.9609 15.5858 13.5858C15.9609 13.2107 16.4696 13 17 13H27C27.5304 13 28.0391 13.2107 28.4142 13.5858C28.7893 13.9609 29 14.4696 29 15V31L26 29L24 31L22 29L20 31L18 29L15 31Z" stroke="#1FAEE9" stroke-width="1.5" stroke-linecap="round" stroke-linejoin="round"/>
</svg>
