<svg width="16" height="16" viewBox="0 0 16 16" fill="none" xmlns="http://www.w3.org/2000/svg">
<path d="M11.5833 4.19998H10.2833V3.54998C10.2833 3.49252 10.2605 3.43741 10.2199 3.39677C10.1792 3.35614 10.1241 3.33331 10.0667 3.33331C10.0092 3.33331 9.95409 3.35614 9.91346 3.39677C9.87283 3.43741 9.85 3.49252 9.85 3.54998V4.19998H6.81667V3.54998C6.81667 3.49252 6.79384 3.43741 6.75321 3.39677C6.71257 3.35614 6.65746 3.33331 6.6 3.33331C6.54254 3.33331 6.48743 3.35614 6.44679 3.39677C6.40616 3.43741 6.38333 3.49252 6.38333 3.54998V4.19998H5.08333C4.79612 4.20032 4.52077 4.31457 4.31768 4.51766C4.11459 4.72075 4.00034 4.9961 4 5.28331V10.9166C4.00034 11.2039 4.11459 11.4792 4.31768 11.6823C4.52077 11.8854 4.79612 11.9996 5.08333 12H11.5833C11.8706 11.9998 12.146 11.8855 12.3491 11.6824C12.5522 11.4793 12.6664 11.2039 12.6667 10.9166V5.28331C12.6664 4.99607 12.5522 4.72065 12.3491 4.51753C12.146 4.31442 11.8706 4.20021 11.5833 4.19998ZM12.2333 10.9166C12.2333 11.089 12.1649 11.2544 12.043 11.3763C11.9211 11.4982 11.7557 11.5666 11.5833 11.5666H5.08333C4.91094 11.5666 4.74561 11.4982 4.62371 11.3763C4.50182 11.2544 4.43333 11.089 4.43333 10.9166V7.23331H12.2333V10.9166ZM12.2333 6.79998H4.43333V5.28331C4.43333 4.92451 4.72367 4.63331 5.08333 4.63331H6.38333V5.28331C6.38333 5.34078 6.40616 5.39589 6.44679 5.43652C6.48743 5.47715 6.54254 5.49998 6.6 5.49998C6.65746 5.49998 6.71257 5.47715 6.75321 5.43652C6.79384 5.39589 6.81667 5.34078 6.81667 5.28331V4.63331H9.85V5.28331C9.85 5.34078 9.87283 5.39589 9.91346 5.43652C9.95409 5.47715 10.0092 5.49998 10.0667 5.49998C10.1241 5.49998 10.1792 5.47715 10.2199 5.43652C10.2605 5.39589 10.2833 5.34078 10.2833 5.28331V4.63331H11.5833C11.7557 4.63331 11.9211 4.70179 12.043 4.82369C12.1649 4.94559 12.2333 5.11092 12.2333 5.28331V6.79998Z" fill="#4C4C4C"/>
</svg>