<svg width="44" height="44" viewBox="0 0 44 44" fill="none" xmlns="http://www.w3.org/2000/svg">
<circle cx="22" cy="22" r="22" fill="#EBFAFF"/>
<g clip-path="url(#clip0_2296_32)">
<path d="M21.5119 11C23.557 11 25.2377 11.6216 26.3799 12.2169C27.9263 13.0223 28.5196 14.5374 28.5196 15.8898V17.6853C29.5796 18.2833 30.6026 18.9324 31.5843 19.6299C31.8173 19.8063 31.9644 20.0575 31.9943 20.33C32.0243 20.6024 31.9346 20.8746 31.7445 21.0885C31.5544 21.3024 31.2789 21.4411 30.9767 21.475C30.6745 21.5089 30.3695 21.4354 30.1267 21.2701C29.6041 20.9001 29.0682 20.5457 28.5196 20.2074V27.3653C28.5196 28.5945 27.9765 29.7734 27.0097 30.6425C26.0429 31.5117 24.7316 32 23.3643 32H19.6595C18.2923 32 16.981 31.5117 16.0142 30.6425C15.0474 29.7734 14.5042 28.5945 14.5042 27.3653V20.2074C13.9588 20.5476 13.418 20.8973 12.8983 21.2701C12.6563 21.4441 12.3474 21.5246 12.0395 21.4939C11.7315 21.4632 11.4497 21.3237 11.2561 21.1062C11.0625 20.8888 10.973 20.611 11.0071 20.3342C11.0413 20.0573 11.1964 19.804 11.4383 19.6299C12.4204 18.9327 13.4439 18.2839 14.5042 17.6864V15.8898C14.5042 14.5364 15.0975 13.0223 16.6439 12.2169C17.7862 11.6216 19.468 11 21.5119 11ZM26.1837 20.8847L26.0424 21.0128L25.8836 21.164C25.3817 21.6794 25.0803 22.3278 25.0251 23.0109L25.0158 23.2398V26.75L25.0099 26.9075C24.9681 27.4075 24.7287 27.8775 24.335 28.2326C23.9413 28.5877 23.4192 28.8045 22.8632 28.8437L22.6799 28.85H20.344L20.1688 28.8447C19.6126 28.8072 19.0898 28.592 18.6948 28.238C18.2998 27.884 18.0587 27.4147 18.0151 26.9148L18.0081 26.75V23.2398L17.9999 23.0319C17.9499 22.3484 17.6535 21.6982 17.1555 21.1797L16.9814 21.0117L16.8401 20.8857V27.3642L16.8495 27.5658C16.9026 28.1667 17.1922 28.7309 17.6664 29.1572C18.1405 29.5834 18.7681 29.8438 19.4365 29.8916L19.6595 29.9H23.3643L23.5874 29.8916C24.2558 29.8438 24.8833 29.5834 25.3575 29.1572C25.8316 28.7309 26.1212 28.1667 26.1744 27.5658L26.1837 27.3653V20.8847ZM21.5119 17.3C20.8649 17.3 20.0123 17.5016 19.0265 17.8743C18.6948 18.0003 18.3584 18.141 18.0232 18.2922L17.521 18.5264L18.6341 19.5271C19.6535 20.4438 20.2596 21.6671 20.3358 22.9616L20.344 23.2398V26.75H22.6799V23.2398C22.6796 21.9434 23.213 20.6927 24.1772 19.7286L24.3898 19.5271L25.5028 18.5264C25.0123 18.2878 24.5095 18.0702 23.9962 17.8743C23.0127 17.5016 22.1601 17.3 21.5119 17.3ZM21.5119 13.1C19.9971 13.1 18.7205 13.562 17.8153 14.0345C17.2174 14.3442 16.8401 15.0142 16.8401 15.8888V16.4768C17.2617 16.2825 17.6915 16.0998 18.1202 15.9371C19.2157 15.5234 20.407 15.2 21.5119 15.2C22.6168 15.2 23.8081 15.5234 24.9037 15.9381C25.3323 16.1009 25.7621 16.2836 26.1837 16.4768V15.8888C26.1837 15.0152 25.8065 14.3453 25.2085 14.0334C24.3033 13.562 23.0268 13.1 21.5119 13.1Z" fill="#1FAEE9"/>
</g>
<defs>
<clipPath id="clip0_2296_32">
<rect width="24" height="24" fill="white" transform="translate(10 10)"/>
</clipPath>
</defs>
</svg>
