<svg width="44" height="44" viewBox="0 0 44 44" fill="none" xmlns="http://www.w3.org/2000/svg">
<circle cx="22" cy="22" r="22" fill="#EBFAFF"/>
<path d="M27.5 22C27.1022 22 26.7206 21.842 26.4393 21.5607C26.158 21.2794 26 20.8978 26 20.5C26 20.1022 26.158 19.7206 26.4393 19.4393C26.7206 19.158 27.1022 19 27.5 19C27.8978 19 28.2794 19.158 28.5607 19.4393C28.842 19.7206 29 20.1022 29 20.5C29 20.8978 28.842 21.2794 28.5607 21.5607C28.2794 21.842 27.8978 22 27.5 22ZM24.5 18C24.1022 18 23.7206 17.842 23.4393 17.5607C23.158 17.2794 23 16.8978 23 16.5C23 16.1022 23.158 15.7206 23.4393 15.4393C23.7206 15.158 24.1022 15 24.5 15C24.8978 15 25.2794 15.158 25.5607 15.4393C25.842 15.7206 26 16.1022 26 16.5C26 16.8978 25.842 17.2794 25.5607 17.5607C25.2794 17.842 24.8978 18 24.5 18ZM19.5 18C19.1022 18 18.7206 17.842 18.4393 17.5607C18.158 17.2794 18 16.8978 18 16.5C18 16.1022 18.158 15.7206 18.4393 15.4393C18.7206 15.158 19.1022 15 19.5 15C19.8978 15 20.2794 15.158 20.5607 15.4393C20.842 15.7206 21 16.1022 21 16.5C21 16.8978 20.842 17.2794 20.5607 17.5607C20.2794 17.842 19.8978 18 19.5 18ZM16.5 22C16.1022 22 15.7206 21.842 15.4393 21.5607C15.158 21.2794 15 20.8978 15 20.5C15 20.1022 15.158 19.7206 15.4393 19.4393C15.7206 19.158 16.1022 19 16.5 19C16.8978 19 17.2794 19.158 17.5607 19.4393C17.842 19.7206 18 20.1022 18 20.5C18 20.8978 17.842 21.2794 17.5607 21.5607C17.2794 21.842 16.8978 22 16.5 22ZM22 13C19.6131 13 17.3239 13.9482 15.636 15.636C13.9482 17.3239 13 19.6131 13 22C13 24.3869 13.9482 26.6761 15.636 28.364C17.3239 30.0518 19.6131 31 22 31C22.3978 31 22.7794 30.842 23.0607 30.5607C23.342 30.2794 23.5 29.8978 23.5 29.5C23.5 29.11 23.35 28.76 23.11 28.5C22.88 28.23 22.73 27.88 22.73 27.5C22.73 27.1022 22.888 26.7206 23.1693 26.4393C23.4506 26.158 23.8322 26 24.23 26H26C27.3261 26 28.5979 25.4732 29.5355 24.5355C30.4732 23.5979 31 22.3261 31 21C31 16.58 26.97 13 22 13Z" fill="#1FAEE9"/>
</svg>
