<svg width="44" height="44" viewBox="0 0 44 44" fill="none" xmlns="http://www.w3.org/2000/svg">
<circle cx="22" cy="22" r="22" fill="#EBFAFF"/>
<path d="M12.5 15V29C12.5 29.2652 12.6054 29.5196 12.7929 29.7071C12.9804 29.8946 13.2348 30 13.5 30H19L17.5 24.5L21 23.5L20.5 20L24.5 18L23.5 16.5L25 14H13.5C13.2348 14 12.9804 14.1054 12.7929 14.2929C12.6054 14.4804 12.5 14.7348 12.5 15ZM31.5 29V15C31.5 14.7348 31.3946 14.4804 31.2071 14.2929C31.0196 14.1054 30.7652 14 30.5 14H29L27 17L28.5 19.5L24 21.5L24.5 25.5L21 26.5L22 30H30.5C30.7652 30 31.0196 29.8946 31.2071 29.7071C31.3946 29.5196 31.5 29.2652 31.5 29Z" stroke="#1FAEE9" stroke-width="1.5" stroke-linecap="round" stroke-linejoin="round"/>
<path d="M17.25 19C17.4489 19 17.6397 18.921 17.7803 18.7803C17.921 18.6397 18 18.4489 18 18.25C18 18.0511 17.921 17.8603 17.7803 17.7197C17.6397 17.579 17.4489 17.5 17.25 17.5C17.0511 17.5 16.8603 17.579 16.7197 17.7197C16.579 17.8603 16.5 18.0511 16.5 18.25C16.5 18.4489 16.579 18.6397 16.7197 18.7803C16.8603 18.921 17.0511 19 17.25 19Z" stroke="#1FAEE9" stroke-width="1.5" stroke-linecap="round" stroke-linejoin="round"/>
</svg>
