<svg width="44" height="44" viewBox="0 0 44 44" fill="none" xmlns="http://www.w3.org/2000/svg">
<circle cx="22" cy="22" r="22" fill="#EBFAFF"/>
<g clip-path="url(#clip0_2296_24)">
<path d="M17 16.5C17 16.3674 17.0527 16.2402 17.1464 16.1464C17.2402 16.0527 17.3674 16 17.5 16H22.5C22.6326 16 22.7598 16.0527 22.8536 16.1464C22.9473 16.2402 23 16.3674 23 16.5V21.5C23 21.6326 22.9473 21.7598 22.8536 21.8536C22.7598 21.9473 22.6326 22 22.5 22H17.5C17.3674 22 17.2402 21.9473 17.1464 21.8536C17.0527 21.7598 17 21.6326 17 21.5V16.5Z" fill="#1FAEE9"/>
<path d="M15 16C15 15.4696 15.2107 14.9609 15.5858 14.5858C15.9609 14.2107 16.4696 14 17 14H23C23.5304 14 24.0391 14.2107 24.4142 14.5858C24.7893 14.9609 25 15.4696 25 16V24C25.5304 24 26.0391 24.2107 26.4142 24.5858C26.7893 24.9609 27 25.4696 27 26V26.5C27 26.6326 27.0527 26.7598 27.1464 26.8536C27.2402 26.9473 27.3674 27 27.5 27C27.6326 27 27.7598 26.9473 27.8536 26.8536C27.9473 26.7598 28 26.6326 28 26.5V22H27.5C27.3674 22 27.2402 21.9473 27.1464 21.8536C27.0527 21.7598 27 21.6326 27 21.5V18.375C27 18.2424 27.0527 18.1152 27.1464 18.0214C27.2402 17.9277 27.3674 17.875 27.5 17.875H28.995C28.984 17.399 28.942 16.981 28.794 16.653C28.7148 16.4623 28.5767 16.3018 28.4 16.195C28.216 16.085 27.936 16 27.5 16C27.3674 16 27.2402 15.9473 27.1464 15.8536C27.0527 15.7598 27 15.6326 27 15.5C27 15.3674 27.0527 15.2402 27.1464 15.1464C27.2402 15.0527 27.3674 15 27.5 15C28.064 14.9987 28.5347 15.1107 28.912 15.336C29.295 15.564 29.546 15.887 29.706 16.243C30.001 16.898 30 17.708 30 18.324V21.499C30.0001 21.5647 29.9873 21.6299 29.9622 21.6906C29.9372 21.7514 29.9003 21.8067 29.8539 21.8532C29.8075 21.8997 29.7523 21.9367 29.6916 21.9618C29.6308 21.987 29.5657 22 29.5 22H29V26.5C29 26.8978 28.842 27.2794 28.5607 27.5607C28.2794 27.842 27.8978 28 27.5 28C27.1022 28 26.7206 27.842 26.4393 27.5607C26.158 27.2794 26 26.8978 26 26.5V26C26 25.7348 25.8946 25.4804 25.7071 25.2929C25.5196 25.1054 25.2652 25 25 25V29H25.5C25.6326 29 25.7598 29.0527 25.8536 29.1464C25.9473 29.2402 26 29.3674 26 29.5C26 29.6326 25.9473 29.7598 25.8536 29.8536C25.7598 29.9473 25.6326 30 25.5 30H14.5C14.3674 30 14.2402 29.9473 14.1464 29.8536C14.0527 29.7598 14 29.6326 14 29.5C14 29.3674 14.0527 29.2402 14.1464 29.1464C14.2402 29.0527 14.3674 29 14.5 29H15V16ZM24 16C24 15.7348 23.8946 15.4804 23.7071 15.2929C23.5196 15.1054 23.2652 15 23 15H17C16.7348 15 16.4804 15.1054 16.2929 15.2929C16.1054 15.4804 16 15.7348 16 16V29H24V16Z" fill="#1FAEE9"/>
</g>
<defs>
<clipPath id="clip0_2296_24">
<rect width="16" height="16" fill="white" transform="translate(14 14)"/>
</clipPath>
</defs>
</svg>
