<svg width="44" height="44" viewBox="0 0 44 44" fill="none" xmlns="http://www.w3.org/2000/svg">
<circle cx="22" cy="22" r="22" fill="#EBFAFF"/>
<path d="M33.25 23.5L28.75 19L27.6895 20.0605L30.379 22.75H22.75V24.25H30.379L27.6895 26.9395L28.75 28L33.25 23.5ZM17.5 20.5C16.9067 20.5 16.3266 20.3241 15.8333 19.9944C15.3399 19.6648 14.9554 19.1962 14.7284 18.6481C14.5013 18.0999 14.4419 17.4967 14.5576 16.9147C14.6734 16.3328 14.9591 15.7982 15.3787 15.3787C15.7982 14.9591 16.3328 14.6734 16.9147 14.5576C17.4967 14.4419 18.0999 14.5013 18.6481 14.7284C19.1962 14.9554 19.6648 15.3399 19.9944 15.8333C20.3241 16.3266 20.5 16.9067 20.5 17.5C20.499 18.2953 20.1826 19.0578 19.6202 19.6202C19.0578 20.1826 18.2953 20.499 17.5 20.5ZM17.5 16C17.2034 15.9997 16.9134 16.0874 16.6666 16.2519C16.4197 16.4164 16.2273 16.6504 16.1134 16.9242C15.9996 17.1981 15.9695 17.4996 16.0269 17.7906C16.0844 18.0816 16.2268 18.349 16.4363 18.5591C16.6457 18.7691 16.9127 18.9124 17.2035 18.9707C17.4943 19.029 17.7959 18.9998 18.0701 18.8868C18.3443 18.7738 18.5789 18.582 18.7441 18.3357C18.9094 18.0894 18.9979 17.7996 18.9985 17.503C18.9989 17.3059 18.9604 17.1106 18.8853 16.9284C18.8102 16.7462 18.6999 16.5805 18.5608 16.4409C18.4216 16.3013 18.2563 16.1906 18.0743 16.1149C17.8922 16.0392 17.6971 16.0002 17.5 16Z" fill="#1FAEE9"/>
<path d="M25.795 28.75L23.5435 31L13 20.4557V13H20.4565L25.7065 18.25L26.767 17.1895L21.5162 11.9395C21.235 11.6582 20.8535 11.5001 20.4557 11.5H13C12.6022 11.5 12.2206 11.658 11.9393 11.9393C11.658 12.2206 11.5 12.6022 11.5 13V20.4557C11.5001 20.8535 11.6582 21.235 11.9395 21.5162L22.483 32.0613C22.7643 32.3425 23.1458 32.5004 23.5435 32.5004C23.9412 32.5004 24.3227 32.3425 24.604 32.0613L26.8555 29.8113L25.795 28.75Z" fill="#1FAEE9"/>
</svg>
