<svg width="44" height="44" viewBox="0 0 44 44" fill="none" xmlns="http://www.w3.org/2000/svg">
<circle cx="22" cy="22" r="22" fill="#EBFAFF"/>
<path d="M20.758 25.192C21.068 25.5027 21.466 25.644 21.952 25.616C22.438 25.5887 22.7927 25.414 23.016 25.092L28.269 17.769L20.908 22.985C20.5733 23.2077 20.387 23.5537 20.349 24.023C20.311 24.4923 20.4473 24.8813 20.758 25.192ZM22 15C22.9193 15 23.756 15.112 24.51 15.336C25.2647 15.5593 26.0167 15.901 26.766 16.361L25.846 16.984C25.2573 16.6627 24.648 16.4183 24.018 16.251C23.388 16.0837 22.7153 16 22 16C19.7833 16 17.8957 16.7793 16.337 18.338C14.7783 19.8967 13.9993 21.784 14 24C14 24.7 14.096 25.3917 14.288 26.075C14.48 26.7583 14.7507 27.4 15.1 28H28.9C29.2833 27.3667 29.5627 26.7083 29.738 26.025C29.9133 25.3417 30.0007 24.6333 30 23.9C30 23.3 29.9227 22.6687 29.768 22.006C29.6133 21.3433 29.3687 20.726 29.034 20.154L29.658 19.234C30.1447 20.0687 30.489 20.854 30.691 21.59C30.893 22.326 30.996 23.092 31 23.888C31.004 24.748 30.9083 25.5507 30.713 26.296C30.5183 27.0413 30.215 27.7927 29.803 28.55C29.723 28.6833 29.6013 28.7917 29.438 28.875C29.2747 28.9583 29.0953 29 28.9 29H15.1C14.9167 29 14.7467 28.9553 14.59 28.866C14.434 28.776 14.3027 28.645 14.196 28.473C13.8653 27.8897 13.5833 27.2317 13.35 26.499C13.1167 25.7663 13 24.9333 13 24C13 22.7707 13.2333 21.6103 13.7 20.519C14.166 19.4277 14.8023 18.472 15.609 17.652C16.4157 16.832 17.3697 16.1847 18.471 15.71C19.5723 15.2353 20.7487 14.9987 22 15Z" fill="#1FAEE9"/>
</svg>
