<svg width="44" height="44" viewBox="0 0 44 44" fill="none" xmlns="http://www.w3.org/2000/svg">
<circle cx="22" cy="22" r="22" fill="#EBFAFF"/>
<path d="M14.728 26.137C13.183 24.591 12.41 23.819 12.123 22.816C11.835 21.813 12.081 20.748 12.573 18.619L12.856 17.391C13.269 15.599 13.476 14.703 14.089 14.089C14.703 13.476 15.599 13.269 17.391 12.856L18.619 12.572C20.749 12.081 21.813 11.835 22.816 12.122C23.819 12.41 24.591 13.183 26.136 14.728L27.966 16.558C30.657 19.248 32 20.592 32 22.262C32 23.933 30.656 25.277 27.967 27.966C25.277 30.656 23.933 32 22.262 32C20.592 32 19.247 30.656 16.558 27.967L14.728 26.137Z" stroke="#1FAEE9" stroke-width="1.5"/>
<path d="M25.39 25.39C25.975 24.803 26.054 23.933 25.566 23.444C25.078 22.956 24.207 23.035 23.621 23.621C23.036 24.207 22.165 24.286 21.677 23.798C21.189 23.31 21.268 22.439 21.854 21.854M21.854 21.854L21.5 21.5M21.854 21.854C22.185 21.522 22.607 21.354 23 21.357M25.743 25.743L25.389 25.389C24.989 25.79 24.454 25.954 24 25.86" stroke="#1FAEE9" stroke-width="1.5" stroke-linecap="round"/>
<path d="M20.0212 20.2931C20.8023 19.5121 20.8023 18.2457 20.0212 17.4647C19.2402 16.6836 17.9738 16.6836 17.1928 17.4647C16.4117 18.2457 16.4117 19.5121 17.1928 20.2931C17.9738 21.0742 19.2402 21.0742 20.0212 20.2931Z" stroke="#1FAEE9" stroke-width="1.5"/>
</svg>
