<svg width="44" height="44" viewBox="0 0 44 44" fill="none" xmlns="http://www.w3.org/2000/svg">
<circle cx="22" cy="22" r="22" fill="#EBFAFF"/>
<path d="M19.6 13.6C19.6 13.4409 19.5368 13.2883 19.4243 13.1757C19.3118 13.0632 19.1592 13 19 13C18.8409 13 18.6883 13.0632 18.5758 13.1757C18.4632 13.2883 18.4 13.4409 18.4 13.6V14.8H17.2C16.5635 14.8 15.9531 15.0529 15.503 15.5029C15.0529 15.953 14.8 16.5635 14.8 17.2V20.8H13.6V17.8C13.6 17.6409 13.5368 17.4883 13.4243 17.3757C13.3118 17.2632 13.1592 17.2 13 17.2C12.8409 17.2 12.6883 17.2632 12.5758 17.3757C12.4632 17.4883 12.4 17.6409 12.4 17.8V25C12.4 25.1591 12.4632 25.3117 12.5758 25.4243C12.6883 25.5368 12.8409 25.6 13 25.6C13.1592 25.6 13.3118 25.5368 13.4243 25.4243C13.5368 25.3117 13.6 25.1591 13.6 25V22H14.8V25.4548C14.8002 26.0913 15.0531 26.7016 15.5032 27.1516L18.4 30.0484C18.625 30.2735 18.9302 30.3999 19.2484 30.4H25.8292C26.052 30.3999 26.2704 30.3377 26.4599 30.2205C26.6493 30.1033 26.8024 29.9357 26.902 29.7364L27.772 28H29.2C29.8365 28 30.447 27.7471 30.8971 27.2971C31.3472 26.847 31.6 26.2365 31.6 25.6V19.6C31.6 18.9635 31.3472 18.353 30.8971 17.9029C30.447 17.4529 29.8365 17.2 29.2 17.2H27.7708L26.902 15.4636C26.8024 15.2643 26.6493 15.0967 26.4599 14.9795C26.2704 14.8623 26.052 14.8001 25.8292 14.8H23.2V13.6C23.2 13.4409 23.1368 13.2883 23.0243 13.1757C22.9118 13.0632 22.7592 13 22.6 13C22.4409 13 22.2883 13.0632 22.1758 13.1757C22.0632 13.2883 22 13.4409 22 13.6V14.8H19.6V13.6ZM17.2 16H25.8292L26.698 17.7364C26.7976 17.9357 26.9507 18.1033 27.1402 18.2205C27.3297 18.3377 27.548 18.3999 27.7708 18.4H29.2C29.5183 18.4 29.8235 18.5264 30.0486 18.7515C30.2736 18.9765 30.4 19.2817 30.4 19.6V25.6C30.4 25.9183 30.2736 26.2235 30.0486 26.4485C29.8235 26.6736 29.5183 26.8 29.2 26.8H27.7708C27.548 26.8001 27.3297 26.8623 27.1402 26.9795C26.9507 27.0967 26.7976 27.2643 26.698 27.4636L25.828 29.2H19.2484L16.3516 26.3032C16.1266 26.0782 16.0001 25.773 16 25.4548V17.2C16 16.8817 16.1265 16.5765 16.3515 16.3515C16.5765 16.1264 16.8818 16 17.2 16ZM19 18.4C19.1592 18.4 19.3118 18.4632 19.4243 18.5757C19.5368 18.6883 19.6 18.8409 19.6 19V22C19.6 22.3183 19.7265 22.6235 19.9515 22.8485C20.1765 23.0736 20.4818 23.2 20.8 23.2H22V19C22 18.8409 22.0632 18.6883 22.1758 18.5757C22.2883 18.4632 22.4409 18.4 22.6 18.4C22.7592 18.4 22.9118 18.4632 23.0243 18.5757C23.1368 18.6883 23.2 18.8409 23.2 19V23.2H27.4C27.5592 23.2 27.7118 23.2632 27.8243 23.3757C27.9368 23.4883 28 23.6409 28 23.8C28 23.9591 27.9368 24.1117 27.8243 24.2243C27.7118 24.3368 27.5592 24.4 27.4 24.4H20.8C20.1635 24.4 19.5531 24.1471 19.103 23.6971C18.6529 23.247 18.4 22.6365 18.4 22V19C18.4 18.8409 18.4632 18.6883 18.5758 18.5757C18.6883 18.4632 18.8409 18.4 19 18.4Z" fill="#1FAEE9"/>
</svg>
