<svg width="44" height="44" viewBox="0 0 44 44" fill="none" xmlns="http://www.w3.org/2000/svg">
<circle cx="22" cy="22" r="22" fill="#EBFAFF"/>
<g clip-path="url(#clip0_2296_28)">
<path d="M31.388 12.405C31.33 12.2605 31.2185 12.1439 31.0767 12.0795C30.935 12.0152 30.7738 12.0079 30.6268 12.0593C30.4799 12.1107 30.3584 12.2168 30.2876 12.3555C30.2169 12.4942 30.2023 12.6548 30.247 12.804C31.176 15.474 29.332 17.468 27.926 18.536L27.358 17.722C27.167 17.449 26.74 17.222 26.408 17.218L23.22 17.232C22.8305 17.2437 22.4515 17.3605 22.123 17.57L12.729 24.157C12.5105 24.3107 12.3618 24.5448 12.3155 24.8079C12.2692 25.0711 12.3291 25.3419 12.482 25.561L16.751 31.669C17.071 32.124 17.582 32.069 18.038 31.751L27.432 25.163C27.702 24.972 28.014 24.56 28.124 24.245L29.122 21.1C29.232 20.786 29.165 20.307 28.974 20.034L28.628 19.538C30.516 18.091 32.476 15.534 31.388 12.405ZM27.017 21.763C26.8439 21.8841 26.6487 21.97 26.4424 22.0156C26.2362 22.0613 26.023 22.0659 25.8149 22.0291C25.6069 21.9923 25.4082 21.9149 25.2301 21.8013C25.052 21.6877 24.898 21.5401 24.777 21.367C24.5319 21.0166 24.4359 20.5834 24.5099 20.1623C24.584 19.7412 24.8221 19.3667 25.172 19.121C25.4463 18.9288 25.7738 18.8271 26.1087 18.8302C26.4436 18.8332 26.7692 18.9408 27.04 19.138C26.768 19.302 26.581 19.398 26.546 19.413C26.422 19.4721 26.3218 19.5715 26.2618 19.695C26.2017 19.8185 26.1854 19.9588 26.2155 20.0928C26.2456 20.2268 26.3204 20.3466 26.4274 20.4325C26.5345 20.5185 26.6677 20.5656 26.805 20.566C26.891 20.566 26.979 20.546 27.062 20.507C27.256 20.415 27.464 20.306 27.681 20.177C27.7309 20.477 27.6951 20.7851 27.5776 21.0657C27.4601 21.3463 27.2658 21.588 27.017 21.763Z" fill="#1FAEE9"/>
</g>
<defs>
<clipPath id="clip0_2296_28">
<rect width="20" height="20" fill="white" transform="translate(12 12)"/>
</clipPath>
</defs>
</svg>
