<svg width="44" height="44" viewBox="0 0 44 44" fill="none" xmlns="http://www.w3.org/2000/svg">
<circle cx="22" cy="22" r="22" fill="#EBFAFF"/>
<path d="M32 22C32 27.523 27.523 32 22 32C16.477 32 12 27.523 12 22C12 16.477 16.477 12 22 12C27.523 12 32 16.477 32 22Z" stroke="#1FAEE9" stroke-width="1.5" stroke-linecap="round" stroke-linejoin="round"/>
<path d="M28.918 20.413C27.949 20.837 26.485 21.218 25.16 20.717C23.264 20 22.29 20 22 20C21.71 20 20.736 20 18.84 20.717C17.515 21.218 16.05 20.837 15.082 20.412M29 23.256C26.855 23.664 23.608 24.879 23.524 29.001M20.476 29.001C20.392 24.879 17.146 23.664 15 23.256M22.008 23H21.999" stroke="#1FAEE9" stroke-width="1.5" stroke-linecap="round" stroke-linejoin="round"/>
</svg>
