<svg width="46" height="46" viewBox="0 0 46 46" fill="none" xmlns="http://www.w3.org/2000/svg">
<circle cx="23" cy="23" r="23" fill="#1FAEE9"/>
<path d="M17.2457 28.4552C16.8867 28.4552 16.5872 28.3352 16.3471 28.0951C16.1071 27.8551 15.9868 27.5553 15.9863 27.1958V18.8043C15.9863 18.4453 16.1066 18.1458 16.3471 17.9057C16.5877 17.6657 16.8869 17.5454 17.2449 17.5449H28.7552C29.1137 17.5449 29.413 17.6652 29.653 17.9057C29.893 18.1463 30.0133 18.4458 30.0138 18.8043V27.1966C30.0138 27.5551 29.8935 27.8546 29.653 28.0951C29.4124 28.3357 29.1132 28.4557 28.7552 28.4552H17.2457ZM23.0001 23.0904L29.2345 19.0139L28.9945 18.3242L23.0001 22.2207L17.0057 18.3242L16.7656 19.0139L23.0001 23.0904Z" fill="white"/>
</svg>
