<svg width="36" height="36" viewBox="0 0 36 36" fill="none" xmlns="http://www.w3.org/2000/svg">
<circle cx="18" cy="18" r="18" fill="#1FAEE9"/>
<path d="M20.8297 19.3957C20.7257 19.3617 20.0686 19.0655 20.4792 17.8173H20.4733C21.5437 16.7149 22.3616 14.9411 22.3616 13.1946C22.3616 10.5093 20.576 9.10156 18.5007 9.10156C16.4241 9.10156 14.6482 10.5086 14.6482 13.1946C14.6482 14.9483 15.4616 16.7293 16.5385 17.8291C16.9583 18.9302 16.2076 19.3388 16.0507 19.3964C13.8773 20.1823 11.3273 21.6149 11.3273 23.0291V23.5594C11.3273 25.4863 15.0634 25.9244 18.5209 25.9244C21.9837 25.9244 25.6727 25.4863 25.6727 23.5594V23.0291C25.6727 21.5724 23.1103 20.1509 20.8297 19.3957Z" fill="white"/>
</svg>
