<svg width="46" height="46" viewBox="0 0 46 46" fill="none" xmlns="http://www.w3.org/2000/svg">
<circle cx="23" cy="23" r="23" fill="#1FAEE9"/>
<path d="M29.3181 30.1516C27.6624 30.1516 26.0266 29.7908 24.4107 29.0692C22.7948 28.3476 21.3246 27.3242 20 25.9992C18.6755 24.6746 17.6525 23.2044 16.9309 21.5885C16.2093 19.9726 15.8482 18.3368 15.8477 16.6811C15.8477 16.4427 15.9271 16.244 16.0861 16.0851C16.245 15.9262 16.4437 15.8467 16.6821 15.8467H19.9007C20.0861 15.8467 20.2517 15.9097 20.3974 16.0358C20.5431 16.1619 20.6292 16.3108 20.6557 16.4825L21.1723 19.264C21.1987 19.4759 21.1921 19.6547 21.1524 19.8004C21.1126 19.9461 21.0398 20.0719 20.9338 20.1779L19.0067 22.1249C19.2716 22.615 19.586 23.0884 19.95 23.5451C20.314 24.0018 20.7148 24.4423 21.1524 24.8667C21.563 25.2773 21.9935 25.6582 22.4438 26.0095C22.8941 26.3608 23.371 26.6818 23.8743 26.9727L25.7419 25.1051C25.8611 24.9859 26.0168 24.8966 26.2092 24.8373C26.4015 24.778 26.5901 24.7613 26.775 24.7872L29.5168 25.3435C29.7022 25.3965 29.8545 25.4927 29.9737 25.632C30.0929 25.7714 30.1525 25.9269 30.1525 26.0985V29.3171C30.1525 29.5555 30.0731 29.7542 29.9141 29.9131C29.7552 30.0721 29.5565 30.1516 29.3181 30.1516Z" fill="#FCFCFC"/>
</svg>
