<svg width="16" height="16" viewBox="0 0 16 16" fill="none" xmlns="http://www.w3.org/2000/svg">
<path d="M7.172 10.128C7.37867 10.3351 7.644 10.4293 7.968 10.4106C8.292 10.3924 8.52844 10.276 8.67733 10.0613L12.1793 5.17932L7.272 8.65665C7.04889 8.80509 6.92467 9.03576 6.89933 9.34865C6.874 9.66154 6.96489 9.92087 7.172 10.128ZM8 3.33332C8.61289 3.33332 9.17067 3.40798 9.67333 3.55732C10.1764 3.70621 10.6778 3.93398 11.1773 4.24065L10.564 4.65598C10.1716 4.44176 9.76533 4.27887 9.34533 4.16732C8.92533 4.05576 8.47689 3.99998 8 3.99998C6.52222 3.99998 5.26378 4.51954 4.22467 5.55865C3.18556 6.59776 2.66622 7.85598 2.66667 9.33332C2.66667 9.79998 2.73067 10.2611 2.85867 10.7167C2.98667 11.1722 3.16711 11.6 3.4 12H12.6C12.8556 11.5778 13.0418 11.1389 13.1587 10.6833C13.2756 10.2278 13.3338 9.75554 13.3333 9.26665C13.3333 8.86665 13.2818 8.44576 13.1787 8.00398C13.0756 7.56221 12.9124 7.15065 12.6893 6.76932L13.1053 6.15598C13.4298 6.71243 13.6593 7.23598 13.794 7.72665C13.9287 8.21732 13.9973 8.72798 14 9.25865C14.0027 9.83198 13.9389 10.3671 13.8087 10.864C13.6789 11.3609 13.4767 11.8618 13.202 12.3666C13.1487 12.4555 13.0676 12.5278 12.9587 12.5833C12.8498 12.6389 12.7302 12.6666 12.6 12.6666H3.4C3.27778 12.6666 3.16444 12.6369 3.06 12.5773C2.956 12.5173 2.86844 12.43 2.79733 12.3153C2.57689 11.9264 2.38889 11.4878 2.23333 10.9993C2.07778 10.5109 2 9.95554 2 9.33332C2 8.51376 2.15556 7.74021 2.46667 7.01265C2.77733 6.28509 3.20156 5.64798 3.73933 5.10132C4.27711 4.55465 4.91311 4.12309 5.64733 3.80665C6.38156 3.49021 7.16578 3.33243 8 3.33332Z" fill="#4C4C4C"/>
</svg>