<svg width="46" height="46" viewBox="0 0 46 46" fill="none" xmlns="http://www.w3.org/2000/svg">
<circle cx="23" cy="23" r="23" fill="#1FAEE9"/>
<path d="M23.0003 22.5335C22.3804 22.5335 21.7858 22.2872 21.3475 21.8489C20.9091 21.4105 20.6629 20.816 20.6629 20.1961C20.6629 19.5762 20.9091 18.9816 21.3475 18.5433C21.7858 18.1049 22.3804 17.8587 23.0003 17.8587C23.6202 17.8587 24.2147 18.1049 24.6531 18.5433C25.0914 18.9816 25.3377 19.5762 25.3377 20.1961C25.3377 20.503 25.2772 20.807 25.1598 21.0906C25.0423 21.3742 24.8701 21.6318 24.6531 21.8489C24.436 22.0659 24.1784 22.2381 23.8948 22.3556C23.6112 22.473 23.3072 22.5335 23.0003 22.5335ZM23.0003 13.6514C21.2645 13.6514 19.5998 14.3409 18.3725 15.5683C17.1451 16.7956 16.4556 18.4603 16.4556 20.1961C16.4556 25.1046 23.0003 32.3506 23.0003 32.3506C23.0003 32.3506 29.545 25.1046 29.545 20.1961C29.545 18.4603 28.8555 16.7956 27.6281 15.5683C26.4007 14.3409 24.736 13.6514 23.0003 13.6514Z" fill="white"/>
</svg>
